<?xml version="1.0" encoding="utf-8"?>
<!-- Generator: Adobe Illustrator 24.3.0, SVG Export Plug-In . SVG Version: 6.00 Build 0)  -->
<svg version="1.1" id="Ebene_1" xmlns="http://www.w3.org/2000/svg" xmlns:xlink="http://www.w3.org/1999/xlink" x="0px" y="0px"
	 viewBox="0 0 581.6 715.8" style="enable-background:new 0 0 581.6 715.8;" xml:space="preserve">
<style type="text/css">
	.st0{fill:#87C846;}
	.st1{fill:#FFFFFF;}
	.st2{enable-background:new    ;}
</style>
<rect id="Rechteck_3-2" class="st0" width="581.6" height="715.8"/>
<path id="Pfad_12" class="st1" d="M357.6,411c-11.6-0.1-23.1-2.1-34.1-5.8c-23-8.4-44.6-19.9-64.4-34.2
	c-34.5-25.8-63.1-58.5-84.2-96.1c-11.6-21.5-20.2-44.5-25.4-68.3c-5.9-25.3-0.7-52,14.3-73.3c5.8-8,13.4-14.5,22.3-18.8
	c9.3-4.3,19.4-6.7,29.7-7.2c9.2-1,17.9,4.3,21.3,12.9c4.3,9.2,8.8,18.6,13.1,27.6c3.1,6.5,6.3,13.2,9.5,19.8c2,4.1,3.6,8.4,5,12.8
	c2.8,7.8-0.1,16.4-7,20.9c-9.4,7.4-18.5,14.7-27.3,22.1c-0.3,0.3-1,0.9-1.5,1.3c0.2,0.9,0.6,1.8,0.9,2.7c7.8,20.1,19,38.7,33.2,55.1
	l0.2,0.2c14.3,16.1,31.3,29.7,50.2,40.1c0.8,0.5,1.7,0.9,2.6,1.3c0.5-0.4,1.1-1,1.5-1.3c8.5-7.7,16.9-15.8,25.5-24.2
	c5.4-6.2,14.3-8,21.7-4.2c4.2,1.9,8.2,4.1,12,6.6c6.2,4,12.4,8.1,18.4,12c8.4,5.5,17.1,11.2,25.6,16.6c8.1,4.5,12.2,13.9,10,22.9
	c-1.8,10.1-5.5,19.8-11,28.5c-5.4,8.2-12.8,15-21.5,19.6C385.6,407.6,371.7,411.1,357.6,411z M217.8,125c-0.3,0-0.6,0-1,0
	c-8,0.3-15.8,2.1-23.1,5.4c-6.3,3.1-11.7,7.7-15.8,13.4c-25.8,35-8.1,81.9,12.7,123.2c9.1,17.7,20.7,34.1,34.4,48.6l0.3,0.3
	c12.6,15.5,27.3,29.1,43.6,40.5c38.2,26,82.3,49.8,120.4,28.8c6.2-3.3,11.4-8.1,15.3-13.9c4.2-6.8,7.1-14.3,8.4-22.2
	c0.4-2.2,0.4-2.8-2.1-4.4c-8.7-5.5-17.4-11.2-25.8-16.8c-6-3.9-12.2-8-18.3-11.9c-3.1-2-6.4-3.8-9.8-5.4c-0.2-0.1-0.5-0.2-0.7-0.3
	c-0.5,0.3-0.9,0.7-1.3,1.1c-8.7,8.4-17.2,16.7-25.9,24.5c-6.4,7.1-17.1,8.1-24.7,2.2c-20.6-11.4-39.2-26.2-54.8-43.8l-0.1-0.2
	c-15.5-17.8-27.7-38.2-36.3-60.1c-4.8-8.2-2.4-18.8,5.5-24.2c8.9-7.6,18.2-15,27.7-22.5c0.5-0.3,0.9-0.7,1.3-1.2
	c0-0.3-0.1-0.5-0.2-0.8c-1.1-3.6-2.5-7-4.1-10.4c-3.1-6.6-6.3-13.3-9.4-19.7c-4.4-9.1-8.9-18.5-13.2-27.8
	C219.8,125.5,219.2,125,217.8,125L217.8,125z M228.4,225.2L228.4,225.2z"/>
<g class="st2">
	<path class="st1" d="M98.1,561.9h2.8c1.1,0,2.1-0.2,2.8-0.5c0.7-0.3,1.4-0.8,1.9-1.5l17.9-22.6c0.7-1,1.5-1.6,2.3-2
		c0.8-0.4,1.9-0.6,3.1-0.6h10.4l-21.8,26.9c-1.3,1.6-2.6,2.8-4,3.5c1,0.4,1.9,0.9,2.7,1.5c0.8,0.6,1.5,1.5,2.3,2.5l22.5,30.3h-10.6
		c-1.4,0-2.5-0.2-3.2-0.6c-0.7-0.4-1.3-1-1.8-1.8l-18.3-23.9c-0.6-0.8-1.2-1.4-2-1.7c-0.7-0.3-1.8-0.5-3.2-0.5h-3.8v28.5h-12v-64.7
		h12V561.9z"/>
	<path class="st1" d="M205.8,567.2c0,4.7-0.8,9.1-2.3,13.2c-1.6,4-3.8,7.5-6.6,10.5c-2.9,3-6.3,5.3-10.3,6.9
		c-4,1.7-8.5,2.5-13.4,2.5c-4.9,0-9.4-0.8-13.4-2.5c-4-1.7-7.5-4-10.4-6.9c-2.9-3-5.1-6.4-6.7-10.5c-1.6-4-2.4-8.4-2.4-13.2
		s0.8-9.1,2.4-13.2c1.6-4,3.8-7.5,6.7-10.5c2.9-3,6.3-5.3,10.4-6.9c4-1.7,8.5-2.5,13.4-2.5c3.3,0,6.4,0.4,9.3,1.1
		c2.9,0.8,5.5,1.8,8,3.2c2.4,1.4,4.6,3.1,6.5,5.1c1.9,2,3.6,4.2,4.9,6.6c1.3,2.4,2.4,5.1,3.1,8C205.5,561,205.8,564,205.8,567.2z
		 M193.5,567.2c0-3.5-0.5-6.7-1.4-9.6c-1-2.8-2.3-5.2-4.1-7.2c-1.8-2-3.9-3.5-6.4-4.5c-2.5-1-5.4-1.6-8.5-1.6c-3.2,0-6,0.5-8.5,1.6
		c-2.5,1-4.7,2.6-6.4,4.5c-1.8,2-3.1,4.4-4.1,7.2c-1,2.8-1.4,6-1.4,9.6c0,3.5,0.5,6.7,1.4,9.6c1,2.8,2.3,5.2,4.1,7.2
		c1.8,2,3.9,3.5,6.4,4.5c2.5,1,5.4,1.6,8.5,1.6c3.2,0,6-0.5,8.5-1.6c2.5-1,4.7-2.5,6.4-4.5c1.8-2,3.1-4.3,4.1-7.2
		C193,573.9,193.5,570.7,193.5,567.2z"/>
	<path class="st1" d="M271,534.8v64.7h-6.2c-1,0-1.8-0.2-2.4-0.5c-0.6-0.3-1.3-0.8-1.9-1.6l-33.8-43.1c0.2,2,0.3,3.8,0.3,5.5v39.7
		h-10.6v-64.7h6.3c0.5,0,0.9,0,1.3,0.1c0.4,0,0.7,0.1,1,0.3c0.3,0.1,0.6,0.3,0.8,0.6c0.3,0.3,0.6,0.6,0.9,1l33.9,43.3
		c-0.1-1-0.2-2.1-0.2-3.1c-0.1-1-0.1-2-0.1-2.8v-39.3H271z"/>
	<path class="st1" d="M330.6,544.7H311v54.8h-12v-54.8h-19.5v-9.9h51V544.7z"/>
	<path class="st1" d="M388.2,599.5h-9.3c-1,0-1.9-0.3-2.5-0.8c-0.7-0.5-1.1-1.2-1.5-1.9l-4.8-13.2h-26.8l-4.8,13.2
		c-0.2,0.7-0.7,1.3-1.4,1.9c-0.7,0.6-1.5,0.8-2.5,0.8h-9.4l25.5-64.7h12.3L388.2,599.5z M366.9,575.1l-7.9-21.5
		c-0.4-1-0.8-2.1-1.2-3.4c-0.4-1.3-0.8-2.7-1.3-4.2c-0.4,1.5-0.8,2.9-1.2,4.3c-0.4,1.3-0.8,2.5-1.2,3.5l-7.8,21.4H366.9z"/>
	<path class="st1" d="M406.9,561.9h2.8c1.1,0,2.1-0.2,2.8-0.5c0.7-0.3,1.4-0.8,1.9-1.5l17.9-22.6c0.7-1,1.5-1.6,2.3-2
		c0.8-0.4,1.9-0.6,3.1-0.6h10.4l-21.8,26.9c-1.3,1.6-2.6,2.8-4,3.5c1,0.4,1.9,0.9,2.7,1.5c0.8,0.6,1.5,1.5,2.3,2.5l22.5,30.3h-10.6
		c-1.4,0-2.5-0.2-3.2-0.6c-0.7-0.4-1.3-1-1.8-1.8l-18.3-23.9c-0.6-0.8-1.2-1.4-2-1.7c-0.7-0.3-1.8-0.5-3.2-0.5h-3.8v28.5h-12v-64.7
		h12V561.9z"/>
	<path class="st1" d="M501.4,544.7h-19.5v54.8h-12v-54.8h-19.5v-9.9h51V544.7z"/>
</g>
</svg>
