<svg xmlns="http://www.w3.org/2000/svg" xmlns:xlink="http://www.w3.org/1999/xlink" width="408.101" height="246.78" viewBox="0 0 408.101 246.78">
  <defs>
    <clipPath id="clip-path">
      <rect id="Rechteck_56" data-name="Rechteck 56" width="408.101" height="246.78" fill="#97c139"/>
    </clipPath>
    <clipPath id="clip-path-2">
      <rect id="Rechteck_61" data-name="Rechteck 61" width="408.101" height="246.78" fill="none"/>
    </clipPath>
    <clipPath id="clip-path-3">
      <path id="Pfad_6249" data-name="Pfad 6249" d="M0-19.274H111.529V-35.4H0Z" transform="translate(0 35.402)" fill="none"/>
    </clipPath>
  </defs>
  <g id="Gruppe_138" data-name="Gruppe 138" transform="translate(-36.6 127.478)">
    <g id="Gruppe_133" data-name="Gruppe 133" transform="translate(36.6 -127.478)">
      <g id="Gruppe_132" data-name="Gruppe 132" clip-path="url(#clip-path)">
        <path id="Pfad_114" data-name="Pfad 114" d="M366.239,59.076c7.17,1.99,2.878-12.853.822-21.446a30,30,0,0,1-4.292-1.973,30.316,30.316,0,0,1-7.581,16.381c3.494,3.1,7.517,6.058,11.051,7.038m13.171-6.1c3.1.563,8.379-8.977,12.126-16.732A30.341,30.341,0,0,1,377.7,39.576a30.516,30.516,0,0,1-3.777-.258c.963,6.205,2.662,13.139,5.482,13.654m22.4-7.744a30.623,30.623,0,0,1-6.065-8.088L389.753,49.68s3.261,1.438,12.056-4.454M287.935-24.761a30.5,30.5,0,0,1,27.325-30.325,30.492,30.492,0,0,1,28.584-19.907,30.324,30.324,0,0,1,15.684,4.374,30.49,30.49,0,0,1,26.643-15.654,30.487,30.487,0,0,1,30.087,25.637,31.181,31.181,0,0,1,3.773-.256A30.5,30.5,0,0,1,450.543-30.4c0,.825-.06,1.633-.125,2.441A30.435,30.435,0,0,1,464.65-2.2,30.409,30.409,0,0,1,453.28,21.531c.03.55.084,1.094.084,1.65A30.488,30.488,0,0,1,408.855,50.26c-5.812,4.173-14.133,9.392-18.163,8.351,0,0-1.5,23.207-1.175,29.1.616,11.213,3.983,23.695,6.351,33.8H359.183s5.408-22.519,5.644-30.039S362.475,70.1,362.475,70.1L349.749,56.948a30.581,30.581,0,0,1-47.54-22.089,30.442,30.442,0,0,1-12.25-48.766,30.382,30.382,0,0,1-2.025-10.853" transform="translate(-57.919 123.903)" fill="#97c139"/>
        <path id="Pfad_115" data-name="Pfad 115" d="M366.239,59.076c7.17,1.99,2.878-12.853.822-21.446a30,30,0,0,1-4.292-1.973,30.316,30.316,0,0,1-7.581,16.381C358.682,55.14,362.7,58.1,366.239,59.076Zm13.171-6.1c3.1.563,8.379-8.977,12.126-16.732A30.341,30.341,0,0,1,377.7,39.576a30.516,30.516,0,0,1-3.777-.258C374.891,45.523,376.589,52.456,379.409,52.971Zm22.4-7.744a30.623,30.623,0,0,1-6.065-8.088L389.753,49.68S393.014,51.119,401.808,45.227ZM287.935-24.761a30.5,30.5,0,0,1,27.325-30.325,30.492,30.492,0,0,1,28.584-19.907,30.324,30.324,0,0,1,15.684,4.374,30.49,30.49,0,0,1,26.643-15.654,30.487,30.487,0,0,1,30.087,25.637,31.181,31.181,0,0,1,3.773-.256A30.5,30.5,0,0,1,450.543-30.4c0,.825-.06,1.633-.125,2.441A30.435,30.435,0,0,1,464.65-2.2,30.409,30.409,0,0,1,453.28,21.531c.03.55.084,1.094.084,1.65A30.488,30.488,0,0,1,408.855,50.26c-5.812,4.173-14.133,9.392-18.163,8.351,0,0-1.5,23.207-1.175,29.1.616,11.213,3.983,23.695,6.351,33.8H359.183s5.408-22.519,5.644-30.039S362.475,70.1,362.475,70.1L349.749,56.948a30.581,30.581,0,0,1-47.54-22.089,30.442,30.442,0,0,1-12.25-48.766A30.382,30.382,0,0,1,287.935-24.761Z" transform="translate(-57.919 123.903)" fill="none" stroke="#fff" stroke-miterlimit="10" stroke-width="3"/>
        <path id="Pfad_116" data-name="Pfad 116" d="M431.993-8.858a2.7,2.7,0,0,1,2.695-2.737,2.7,2.7,0,0,1,2.685,2.737,2.678,2.678,0,0,1-2.685,2.72,2.676,2.676,0,0,1-2.695-2.72m5.27,2.982v.356c-.026,1.729-.7,3.033-2.6,3.033a2.8,2.8,0,0,1-2.669-1.694l-1.652.864a4.678,4.678,0,0,0,4.321,2.593c3.015,0,4.481-1.889,4.481-4.8V-13.2h-1.88v1.348a3.342,3.342,0,0,0-2.864-1.509A4.462,4.462,0,0,0,430.12-8.85a4.358,4.358,0,0,0,4.278,4.49,3.36,3.36,0,0,0,2.864-1.517M422.669-13.2h-1.88v8.676h1.88V-9.383c0-1.212.594-2.212,1.907-2.212,1.338,0,1.914.983,1.914,2.212v4.854h1.881V-9.4c0-1.991-.856-3.965-3.127-3.965a2.616,2.616,0,0,0-2.575,1.636Zm-9.527,0h-1.889v5.236a3.619,3.619,0,0,0,3.659,3.617,3.628,3.628,0,0,0,3.652-3.617V-13.2h-1.881v5.236a1.8,1.8,0,0,1-1.771,1.821,1.786,1.786,0,0,1-1.771-1.821Zm-8.739,1.8h1.8v6.879h1.881v-6.879h1.83v-1.8h-1.83v-2.532h-1.881V-13.2h-1.8Zm-8.612,2.551a2.7,2.7,0,0,1,2.695-2.737,2.7,2.7,0,0,1,2.686,2.737,2.679,2.679,0,0,1-2.686,2.72,2.676,2.676,0,0,1-2.695-2.72m5.27,2.982v1.347h1.881V-13.2h-1.881v1.348a3.341,3.341,0,0,0-2.864-1.509A4.462,4.462,0,0,0,393.92-8.85a4.358,4.358,0,0,0,4.278,4.49,3.359,3.359,0,0,0,2.864-1.517M390.206-13.2h-1.881v8.676h1.881V-9.189c0-1.271.525-2.262,1.914-2.262h1.161V-13.2c-1.525,0-2.745.093-3.075,1.864ZM385.77-5.986l-1.313-1.152a3.162,3.162,0,0,1-2.4,1.076,2.571,2.571,0,0,1-2.575-1.931h6.9a5.97,5.97,0,0,0,.059-.864,4.475,4.475,0,0,0-4.474-4.524,4.473,4.473,0,0,0-4.465,4.524c0,4.4,5.405,5.99,8.26,2.872m-6.278-3.652a2.556,2.556,0,0,1,4.973,0ZM374.151-11.1a2.6,2.6,0,0,0,1.262-2.245,3.4,3.4,0,0,0-3.279-3.33h-4.558V-4.529h4.744a3.67,3.67,0,0,0,3.7-3.685,3.074,3.074,0,0,0-1.872-2.889m-4.617-.8v-2.889h2.482a1.434,1.434,0,0,1,1.416,1.44,1.455,1.455,0,0,1-1.4,1.448Zm0,1.889H372.2a1.81,1.81,0,0,1,1.83,1.8,1.779,1.779,0,0,1-1.745,1.787c-.915.009-1.838.009-2.753.009Z" transform="translate(-65.319 117.864)" fill="#fff"/>
        <path id="Pfad_117" data-name="Pfad 117" d="M434.07,1.8h-1.88v8.676h1.88V5.626c0-1.211.594-2.211,1.907-2.211,1.338,0,1.914.983,1.914,2.211v4.855h1.881V5.609c0-1.991-.856-3.965-3.126-3.965a2.617,2.617,0,0,0-2.576,1.635Zm-6.417,0h-1.88v8.676h1.88V5.821c0-1.271.525-2.262,1.915-2.262h1.161V1.8c-1.525,0-2.745.093-3.076,1.864Zm-4.435,7.218L421.9,7.871a3.162,3.162,0,0,1-2.4,1.076,2.572,2.572,0,0,1-2.576-1.931h6.9a5.855,5.855,0,0,0,.059-.865,4.469,4.469,0,1,0-8.938,0c0,4.4,5.405,5.991,8.26,2.872M416.94,5.372a2.556,2.556,0,0,1,4.973,0ZM408.71,3.6h1.8v6.879H412.4V3.6h1.83V1.8H412.4V-.728h-1.881V1.8h-1.8Zm-3.384,6.879h1.881V-1.669h-1.881ZM395.155-1.669v12.15h8.38v-1.9h-6.4V5.109h4.948V3.22h-4.948v-3h6.4V-1.669ZM385.006,1.8h-1.88v8.676h1.88V5.821c0-1.271.526-2.262,1.915-2.262h1.161V1.8c-1.525,0-2.745.093-3.076,1.864Zm-7.4-.753h2.135V-.991h-2.135Zm-2.9,0h2.135V-.991h-2.135Zm.772.753H373.59V7.041a3.656,3.656,0,0,0,7.311,0V1.8h-1.881V7.041a1.771,1.771,0,1,1-3.541,0Zm-8.663,1.8h1.626v6.879h1.881V3.6H372.3V1.8h-1.965V.535a.587.587,0,0,1,.627-.627A1.6,1.6,0,0,1,372.3.721V-1.338a1.9,1.9,0,0,0-1.33-.542A2.411,2.411,0,0,0,368.443.525V1.8h-1.626Z" transform="translate(-65.253 120.58)" fill="#fff"/>
      </g>
    </g>
    <rect id="Rechteck_57" data-name="Rechteck 57" width="204.732" height="163.54" transform="translate(126.257 -48.168)" fill="#fff"/>
    <rect id="Rechteck_58" data-name="Rechteck 58" width="205.347" height="50.415" transform="translate(126.257 65.572)" fill="#ed8000" opacity="0.649"/>
    <path id="Pfad_143" data-name="Pfad 143" d="M0,0H205.347V50.415H0Z" transform="translate(126.257 12.083)" fill="#ed8000" opacity="0.846"/>
    <path id="Pfad_142" data-name="Pfad 142" d="M0,0H205.347V50.415H0Z" transform="translate(126.257 -41.405)" fill="#ed8000"/>
    <g id="Gruppe_135" data-name="Gruppe 135" transform="translate(36.6 -127.478)">
      <g id="Gruppe_134" data-name="Gruppe 134" clip-path="url(#clip-path-2)">
        <path id="Pfad_118" data-name="Pfad 118" d="M290.388,116.059a2.69,2.69,0,1,1,2.694,2.72,2.694,2.694,0,0,1-2.694-2.72m5.269,2.983v.355c-.026,1.729-.694,3.034-2.6,3.034a2.794,2.794,0,0,1-2.668-1.695l-1.652.864a4.675,4.675,0,0,0,4.32,2.593c3.016,0,4.482-1.889,4.482-4.8v-7.684h-1.881v1.347a3.342,3.342,0,0,0-2.863-1.509,4.463,4.463,0,0,0-4.279,4.516,4.358,4.358,0,0,0,4.279,4.49,3.359,3.359,0,0,0,2.863-1.516m-14.592-7.329h-1.881v8.676h1.881v-4.855c0-1.212.593-2.212,1.906-2.212,1.339,0,1.915.984,1.915,2.212v4.855h1.88v-4.872c0-1.991-.856-3.965-3.126-3.965a2.615,2.615,0,0,0-2.575,1.636Zm-9.527,0h-1.889v5.236a3.656,3.656,0,0,0,7.311,0v-5.236h-1.88v5.236a1.771,1.771,0,1,1-3.542,0Zm-6.274,0h-1.88v8.676h1.88v-4.66c0-1.27.526-2.262,1.915-2.262h1.161v-1.753c-1.525,0-2.745.093-3.076,1.864Zm-4.435,7.218-1.313-1.152a3.163,3.163,0,0,1-2.4,1.077,2.571,2.571,0,0,1-2.575-1.932h6.9a5.974,5.974,0,0,0,.059-.864,4.47,4.47,0,1,0-8.939,0c0,4.4,5.405,5.99,8.26,2.872m-6.278-3.652a2.556,2.556,0,0,1,4.973,0Zm-10.984.78a2.69,2.69,0,1,1,2.695,2.72,2.7,2.7,0,0,1-2.695-2.72m5.27,2.983v1.347h1.88v-12.15h-1.88v4.821a3.344,3.344,0,0,0-2.864-1.509,4.462,4.462,0,0,0-4.278,4.516,4.358,4.358,0,0,0,4.278,4.49,3.362,3.362,0,0,0,2.864-1.516m-10.857-7.329H236.1v8.676h1.88v-4.66c0-1.27.526-2.262,1.915-2.262h1.161v-1.753c-1.525,0-2.745.093-3.076,1.864Zm-7.933-.983h2.135v-2.042h-2.135Zm-2.9,0h2.135v-2.042H227.15Zm-.178,5.329a2.69,2.69,0,1,1,2.694,2.72,2.695,2.695,0,0,1-2.694-2.72m2.694,4.508a4.516,4.516,0,1,0,0-9.032,4.55,4.55,0,0,0-4.566,4.532,4.474,4.474,0,0,0,4.566,4.5m-10.551-7.057h1.626v6.879h1.881v-6.879H224.6v-1.8H222.63v-1.271a.587.587,0,0,1,.627-.626,1.606,1.606,0,0,1,1.338.813v-2.058a1.9,1.9,0,0,0-1.33-.542,2.411,2.411,0,0,0-2.525,2.406v1.279h-1.626Zm-6.875-5.27h-1.881v12.15h1.881v-4.855c0-1.212.593-2.212,1.906-2.212,1.339,0,1.915.984,1.915,2.212v4.855h1.881v-4.872c0-1.991-.856-3.965-3.127-3.965a2.616,2.616,0,0,0-2.575,1.636Zm-7.392,2.72h2.135v-2.042h-2.135Zm-2.9,0h2.135v-2.042H201.95Zm.771.754h-1.889v5.236a3.656,3.656,0,0,0,7.311,0v-5.236h-1.881v5.236a1.771,1.771,0,1,1-3.542,0Zm-6.273,0h-1.881v8.676h1.881v-4.66c0-1.27.525-2.262,1.915-2.262h1.161v-1.753c-1.525,0-2.745.093-3.076,1.864ZM186.3,108.239v12.15h1.957v-5.431h4.355v-1.889H188.26V110.1h5.871v-1.864Z" transform="translate(-49.59 103.043)" fill="#fff"/>
        <path id="Pfad_119" data-name="Pfad 119" d="M321.841,56.143a2.69,2.69,0,1,1,2.694,2.72,2.694,2.694,0,0,1-2.694-2.72m5.269,2.983v.356c-.026,1.728-.7,3.033-2.6,3.033a2.794,2.794,0,0,1-2.668-1.695l-1.652.865a4.677,4.677,0,0,0,4.32,2.593c3.016,0,4.482-1.889,4.482-4.8V51.8H327.11v1.347a3.342,3.342,0,0,0-2.864-1.508,4.462,4.462,0,0,0-4.279,4.516,4.358,4.358,0,0,0,4.279,4.49,3.36,3.36,0,0,0,2.864-1.517M312.517,51.8h-1.881v8.676h1.881V55.618c0-1.212.593-2.211,1.906-2.211,1.339,0,1.915.983,1.915,2.211v4.855h1.88V55.6c0-1.992-.856-3.965-3.126-3.965a2.615,2.615,0,0,0-2.575,1.635Zm-9.527,0H301.1v5.236a3.656,3.656,0,0,0,7.311,0V51.8h-1.88v5.236a1.771,1.771,0,1,1-3.541,0Zm-8.739,1.8h1.8v6.879h1.88V53.593h1.83V51.8h-1.83V49.263h-1.88V51.8h-1.8Zm-3.342-3.118H292.8V48.324H290.91Zm0,10H292.8V51.8H290.91Zm-2.5-1.458-1.313-1.152a3.167,3.167,0,0,1-2.4,1.076,2.571,2.571,0,0,1-2.575-1.931h6.9a5.983,5.983,0,0,0,.059-.865,4.47,4.47,0,1,0-8.939,0c0,4.4,5.405,5.99,8.261,2.872m-6.278-3.651a2.556,2.556,0,0,1,4.973,0Zm-5.7-3.567h-1.881v8.676h1.881v-4.66c0-1.27.525-2.262,1.914-2.262h1.161V51.8c-1.525,0-2.745.093-3.075,1.864ZM272,59.015l-1.313-1.152a3.165,3.165,0,0,1-2.4,1.076,2.571,2.571,0,0,1-2.575-1.931h6.9a5.987,5.987,0,0,0,.059-.865,4.47,4.47,0,1,0-8.939,0c0,4.4,5.405,5.99,8.26,2.872m-6.278-3.651a2.556,2.556,0,0,1,4.973,0Zm-5.393.763a2.69,2.69,0,1,1-2.694-2.72,2.694,2.694,0,0,1,2.694,2.72m-5.269-2.974V48.323h-1.881v12.15h1.881V59.134a3.356,3.356,0,0,0,2.864,1.5,4.462,4.462,0,0,0,4.278-4.516,4.358,4.358,0,0,0-4.278-4.49,3.339,3.339,0,0,0-2.864,1.525M248.632,51.8H246.75v8.676h1.881v-4.66c0-1.27.525-2.262,1.914-2.262h1.161V51.8c-1.525,0-2.745.093-3.075,1.864Zm-11.01,4.346a2.69,2.69,0,1,1,2.694,2.72,2.694,2.694,0,0,1-2.694-2.72m2.694,4.508a4.516,4.516,0,1,0,0-9.032,4.55,4.55,0,0,0-4.566,4.533,4.474,4.474,0,0,0,4.566,4.5M233.255,51.8,231,57.913,228.748,51.8h-2.016l3.4,8.676h1.737l3.4-8.676Zm-9.866,8.676h1.881V48.323h-1.881ZM215.735,51.8h-1.889v5.236a3.656,3.656,0,0,0,7.311,0V51.8h-1.88v5.236a1.771,1.771,0,1,1-3.541,0Zm-9.62-3.474h-1.881v12.15h1.881V55.618c0-1.212.593-2.211,1.906-2.211,1.339,0,1.915.983,1.915,2.211v4.855h1.881V55.6c0-1.992-.856-3.965-3.127-3.965a2.615,2.615,0,0,0-2.575,1.635Zm-3.783,5.439a4.468,4.468,0,0,0-3.813-2.143,4.528,4.528,0,1,0,3.8,6.922l-1.491-1.017a2.7,2.7,0,1,1-.026-2.821ZM184.7,58l-.737,1.729a10.4,10.4,0,0,0,3.855.973c2.1,0,4.6-1.008,4.6-3.457,0-4.354-6.49-3.025-6.49-5.667,0-1.339,1.61-1.568,2.635-1.568a8.084,8.084,0,0,1,2.872.712l.687-1.737a8.841,8.841,0,0,0-3.567-.864c-2.126,0-4.6.957-4.6,3.447,0,4.338,6.489,3.042,6.489,5.668,0,1.2-1.686,1.584-2.626,1.584A8.961,8.961,0,0,1,184.7,58" transform="translate(-49.386 109.242)" fill="#fff"/>
        <path id="Pfad_121" data-name="Pfad 121" d="M290.137,3.374h1.8v6.879h1.881V3.374h1.83v-1.8h-1.83V-.956h-1.881V1.578h-1.8Zm-3.91-1.8h-1.88v8.676h1.88V5.594c0-1.271.525-2.262,1.915-2.262H289.3V1.578c-1.525,0-2.745.093-3.076,1.864ZM274.846,5.924a2.69,2.69,0,1,1,5.38,0,2.69,2.69,0,1,1-5.38,0m5.269,2.983v1.347H282V1.578h-1.881V2.925a3.342,3.342,0,0,0-2.864-1.508,4.462,4.462,0,0,0-4.278,4.516,4.358,4.358,0,0,0,4.278,4.49,3.36,3.36,0,0,0,2.864-1.517m-13.39-5.532h1.8v6.879h1.88V3.374h1.83v-1.8h-1.83V-.956h-1.88V1.578h-1.8Zm-1.656.39.652-1.695a6.7,6.7,0,0,0-2.7-.669c-1.609,0-3.38.746-3.38,2.6,0,2.864,4.405,2.339,4.405,3.779,0,.687-1.008.873-1.525.873A5.286,5.286,0,0,1,260.358,8l-.72,1.669a6.76,6.76,0,0,0,2.889.763c1.594,0,3.389-.737,3.389-2.584,0-2.956-4.388-2.33-4.388-3.8,0-.737.949-.864,1.5-.864a4.672,4.672,0,0,1,2.042.576M255.7,10.253h1.881V-1.9H255.7Zm-7.655-8.676h-1.889V6.813a3.656,3.656,0,0,0,7.312,0V1.578h-1.881V6.813a1.771,1.771,0,1,1-3.541,0ZM238.421-1.9h-1.88v12.15h1.88V5.4c0-1.211.594-2.211,1.907-2.211,1.339,0,1.914.983,1.914,2.211v4.855h1.881V5.382c0-1.992-.856-3.965-3.126-3.965a2.618,2.618,0,0,0-2.576,1.635Zm-3.782,5.439A4.469,4.469,0,0,0,230.826,1.4a4.551,4.551,0,0,0-4.567,4.533,4.539,4.539,0,0,0,8.371,2.389l-1.49-1.016a2.686,2.686,0,0,1-5.007-1.382,2.688,2.688,0,0,1,4.982-1.44ZM217,7.779l-.737,1.729a10.4,10.4,0,0,0,3.855.974c2.1,0,4.6-1.008,4.6-3.457,0-4.354-6.489-3.025-6.489-5.668,0-1.339,1.609-1.567,2.635-1.567A8.082,8.082,0,0,1,223.74.5l.686-1.737a8.837,8.837,0,0,0-3.566-.864c-2.127,0-4.6.957-4.6,3.448,0,4.338,6.489,3.041,6.489,5.668,0,1.2-1.686,1.584-2.626,1.584A8.947,8.947,0,0,1,217,7.779M207.11,5.907a2.691,2.691,0,1,1-5.381,0,2.691,2.691,0,1,1,5.381,0m-5.27-2.974V-1.9h-1.881v12.15h1.881V8.915a3.357,3.357,0,0,0,2.864,1.5A4.462,4.462,0,0,0,208.982,5.9a4.358,4.358,0,0,0-4.278-4.49,3.338,3.338,0,0,0-2.864,1.524M190.457,5.924a2.691,2.691,0,1,1,5.381,0,2.691,2.691,0,1,1-5.381,0m5.27,2.983v1.347h1.881V1.578h-1.881V2.925a3.342,3.342,0,0,0-2.864-1.508,4.462,4.462,0,0,0-4.278,4.516,4.358,4.358,0,0,0,4.278,4.49,3.36,3.36,0,0,0,2.864-1.517" transform="translate(-49.585 116.599)" fill="#fff"/>
        <g id="Gruppe_184" data-name="Gruppe 184" transform="translate(137 131.631)">
          <g id="Gruppe_183" data-name="Gruppe 183" transform="translate(0 -35.402)" clip-path="url(#clip-path-3)">
            <g id="Gruppe_182" data-name="Gruppe 182" transform="translate(0 0)">
              <path id="Pfad_6248" data-name="Pfad 6248" d="M0-.253V11.869H7.193V9.984H1.969V-.253ZM9.353,6.772a2.55,2.55,0,0,1,4.962,0Zm6.264,3.643-1.31-1.149a3.157,3.157,0,0,1-2.392,1.073,2.565,2.565,0,0,1-2.57-1.927h6.889a5.9,5.9,0,0,0,.059-.862,4.459,4.459,0,1,0-8.918,0c0,4.387,5.393,5.976,8.242,2.865m4.424-7.2H18.164v8.656h1.876V7.219c0-1.268.524-2.257,1.91-2.257h1.158V3.213c-1.522,0-2.738.093-3.068,1.86Zm6.4,0H24.567v8.656h1.876V7.025c0-1.209.592-2.206,1.9-2.206,1.335,0,1.91.98,1.91,2.206v4.843h1.876V7.008c0-1.986-.854-3.956-3.119-3.956a2.61,2.61,0,0,0-2.57,1.631Zm6.842,1.792h1.623v6.863h1.877V5.005h1.969V3.213H36.793V1.945a.586.586,0,0,1,.625-.625,1.6,1.6,0,0,1,1.336.811V.077a1.9,1.9,0,0,0-1.327-.541,2.406,2.406,0,0,0-2.519,2.4V3.213H33.285Zm10.528,7.041a4.505,4.505,0,1,0,0-9.011,4.54,4.54,0,0,0-4.556,4.522,4.464,4.464,0,0,0,4.556,4.488m-2.688-4.5a2.684,2.684,0,1,1,5.367,0,2.684,2.684,0,1,1-5.367,0M41.3,2.232h2.13V.2H41.3ZM41.3.2m2.891,2.037h2.13V.2h-2.13Zm0-2.037,7.915,3.018H50.232v8.656h1.876V7.219c0-1.268.524-2.257,1.91-2.257h1.158V3.213c-1.522,0-2.738.093-3.068,1.86ZM62.94,10.525v1.344h1.876V-.253H62.94v4.81a3.335,3.335,0,0,0-2.857-1.5,4.452,4.452,0,0,0-4.269,4.506,4.348,4.348,0,0,0,4.269,4.48,3.353,3.353,0,0,0,2.857-1.513M57.683,7.549a2.684,2.684,0,1,1,5.367,0,2.684,2.684,0,1,1-5.367,0m10.959-.778a2.55,2.55,0,0,1,4.962,0ZM74.9,10.415l-1.31-1.149A3.157,3.157,0,0,1,71.2,10.339a2.566,2.566,0,0,1-2.57-1.927h6.889a5.9,5.9,0,0,0,.059-.862,4.459,4.459,0,1,0-8.918,0c0,4.387,5.393,5.976,8.242,2.865m4.424-7.2H77.453v8.656h1.876V7.219c0-1.268.524-2.257,1.91-2.257H82.4V3.213c-1.521,0-2.738.093-3.068,1.86Zm6.259,0H83.7V8.437a3.648,3.648,0,0,0,7.295,0V3.213H89.121V8.437a1.767,1.767,0,1,1-3.533,0Zm9.5,0H93.216v8.656h1.876V7.025c0-1.209.592-2.206,1.9-2.206,1.336,0,1.91.98,1.91,2.206v4.843h1.877V7.008c0-1.986-.854-3.956-3.119-3.956a2.61,2.61,0,0,0-2.57,1.631Zm14.56,7.312v.355c-.026,1.724-.693,3.026-2.6,3.026a2.787,2.787,0,0,1-2.662-1.691l-1.649.862a4.666,4.666,0,0,0,4.311,2.586c3.009,0,4.472-1.885,4.472-4.784V3.213h-1.876V4.557a3.335,3.335,0,0,0-2.857-1.5,4.452,4.452,0,0,0-4.269,4.506,4.348,4.348,0,0,0,4.269,4.48,3.353,3.353,0,0,0,2.857-1.513m-5.258-2.975a2.684,2.684,0,1,1,5.367,0,2.684,2.684,0,1,1-5.367,0" transform="translate(0 0.464)" fill="#fff"/>
            </g>
          </g>
        </g>
      </g>
    </g>
    <path id="Pfad_122" data-name="Pfad 122" d="M237.531-127.478,135.718-48.169l204.119.493Z" transform="translate(-8.6 0)" fill="#ed8000"/>
    <g id="Gruppe_137" data-name="Gruppe 137" transform="translate(36.6 -127.478)">
      <g id="Gruppe_136" data-name="Gruppe 136" clip-path="url(#clip-path-2)">
        <path id="Pfad_123" data-name="Pfad 123" d="M111.978,122.712V76.792a34.209,34.209,0,0,0,10.235,1.564c20.34,0,36.831-17.863,36.831-39.9a42.334,42.334,0,0,0-4.522-19.165A31.057,31.057,0,0,0,162.27-1.437c0-16.474-12.328-29.829-27.536-29.829-.837,0-1.664.047-2.482.127-6.325-12.1-18.315-20.264-32.067-20.264S74.444-43.238,68.118-31.139c-.818-.079-1.645-.127-2.482-.127C50.429-31.266,38.1-17.911,38.1-1.437a31.061,31.061,0,0,0,7.748,20.732A42.345,42.345,0,0,0,41.326,38.46c0,22.034,16.49,39.9,36.831,39.9a34.209,34.209,0,0,0,10.235-1.564v45.919" transform="translate(-36.73 120.877)" fill="#97c139"/>
        <path id="Pfad_124" data-name="Pfad 124" d="M111.978,122.712V76.792a34.209,34.209,0,0,0,10.235,1.564c20.34,0,36.831-17.863,36.831-39.9a42.334,42.334,0,0,0-4.522-19.165A31.057,31.057,0,0,0,162.27-1.437c0-16.474-12.328-29.829-27.536-29.829-.837,0-1.664.047-2.482.127-6.325-12.1-18.315-20.264-32.067-20.264S74.444-43.238,68.118-31.139c-.818-.079-1.645-.127-2.482-.127C50.429-31.266,38.1-17.911,38.1-1.437a31.061,31.061,0,0,0,7.748,20.732A42.345,42.345,0,0,0,41.326,38.46c0,22.034,16.49,39.9,36.831,39.9a34.209,34.209,0,0,0,10.235-1.564v45.919" transform="translate(-36.73 120.877)" fill="none" stroke="#fff" stroke-miterlimit="10" stroke-width="3"/>
        <path id="Pfad_125" data-name="Pfad 125" d="M145.278,13.748a2.69,2.69,0,1,1,2.694,2.72,2.695,2.695,0,0,1-2.694-2.72m5.269,2.983v.355c-.026,1.729-.694,3.034-2.6,3.034a2.794,2.794,0,0,1-2.668-1.695l-1.652.864a4.675,4.675,0,0,0,4.32,2.593c3.016,0,4.482-1.889,4.482-4.8V9.4h-1.881v1.347a3.342,3.342,0,0,0-2.863-1.509,4.463,4.463,0,0,0-4.279,4.516,4.358,4.358,0,0,0,4.279,4.49,3.359,3.359,0,0,0,2.863-1.516M135.955,9.4h-1.881v8.676h1.881V13.223c0-1.212.593-2.212,1.906-2.212,1.339,0,1.915.984,1.915,2.212v4.855h1.88V13.206c0-1.991-.856-3.965-3.126-3.965a2.615,2.615,0,0,0-2.575,1.636Zm-9.527,0h-1.889v5.236a3.656,3.656,0,0,0,7.311,0V9.4h-1.88v5.236a1.771,1.771,0,1,1-3.542,0Zm-9.6,0h-1.88v8.676h1.88V13.223c0-1.212.594-2.212,1.907-2.212,1.339,0,1.915.984,1.915,2.212v4.855h1.88V13.206c0-1.991-.856-3.965-3.126-3.965a2.617,2.617,0,0,0-2.576,1.636Zm-9.831,0h-1.881v8.676h1.881V13.223c0-1.212.593-2.212,1.906-2.212,1.339,0,1.915.984,1.915,2.212v4.855h1.88V13.206c0-1.991-.856-3.965-3.126-3.965a2.615,2.615,0,0,0-2.575,1.636ZM95.62,13.748a2.69,2.69,0,1,1,2.695,2.72,2.7,2.7,0,0,1-2.695-2.72m5.27,2.983v1.347h1.88V9.4h-1.88v1.347A3.343,3.343,0,0,0,98.026,9.24a4.462,4.462,0,0,0-4.278,4.516,4.358,4.358,0,0,0,4.278,4.49,3.36,3.36,0,0,0,2.864-1.516m-10.551-3a2.691,2.691,0,1,1-2.695-2.72,2.695,2.695,0,0,1,2.695,2.72m-5.27-2.973V9.4H83.187V21.627h1.881V16.739a3.356,3.356,0,0,0,2.864,1.5,4.462,4.462,0,0,0,4.278-4.516,4.358,4.358,0,0,0-4.278-4.49,3.339,3.339,0,0,0-2.864,1.525m-4.731.83.653-1.694a6.689,6.689,0,0,0-2.7-.669c-1.61,0-3.381.745-3.381,2.6,0,2.864,4.406,2.339,4.406,3.779,0,.686-1.008.872-1.525.872a5.29,5.29,0,0,1-2.161-.652l-.721,1.669a6.764,6.764,0,0,0,2.889.763c1.593,0,3.389-.738,3.389-2.584,0-2.957-4.389-2.33-4.389-3.8,0-.737.949-.865,1.5-.865a4.685,4.685,0,0,1,2.042.576M68.4,11.2h1.8v6.879h1.881V11.2h1.83V9.4h-1.83V6.869H70.2V9.4H68.4ZM61.58,9.4H59.7v8.676h1.88V13.223c0-1.212.594-2.212,1.907-2.212,1.338,0,1.914.984,1.914,2.212v4.855h1.881V13.206c0-1.991-.856-3.965-3.126-3.965a2.617,2.617,0,0,0-2.576,1.636ZM49.444,5.928v12.15h8.379v-1.9h-6.4V12.706h4.948V10.817H51.427v-3h6.4V5.928Z" transform="translate(-37.715 115.903)" fill="#fff"/>
        <path id="Pfad_126" data-name="Pfad 126" d="M139.181,24.411H137.3v8.676h1.88V28.427c0-1.271.525-2.262,1.915-2.262h1.161V24.411c-1.525,0-2.745.093-3.076,1.864Zm-4.435,7.218-1.313-1.152a3.162,3.162,0,0,1-2.4,1.076,2.572,2.572,0,0,1-2.576-1.931h6.9a5.855,5.855,0,0,0,.059-.865,4.469,4.469,0,1,0-8.938,0c0,4.4,5.405,5.991,8.26,2.872m-6.278-3.651a2.556,2.556,0,0,1,4.973,0Zm-10.984.779a2.69,2.69,0,1,1,2.694,2.721,2.694,2.694,0,0,1-2.694-2.721m5.27,2.983v1.347h1.88V20.937h-1.88v4.821a3.344,3.344,0,0,0-2.864-1.508,4.462,4.462,0,0,0-4.278,4.516,4.358,4.358,0,0,0,4.278,4.49,3.362,3.362,0,0,0,2.864-1.517m-14.593-7.329H106.28v8.676h1.881V28.232c0-1.211.593-2.211,1.906-2.211,1.339,0,1.915.983,1.915,2.211v4.855h1.881V28.215c0-1.991-.856-3.965-3.127-3.965a2.617,2.617,0,0,0-2.575,1.635Zm-6.1-1.321h1.889V20.938h-1.889Zm0,10h1.889V24.411h-1.889ZM90.091,20.937v12.15h1.948V27.572h.992L98,33.087h2.626L94.81,26.6l5.2-5.66H97.343l-4.312,4.745h-.992V20.937Zm-10.15,3.474h-1.88v8.676h1.88V28.427c0-1.271.526-2.262,1.915-2.262h1.161V24.411c-1.525,0-2.745.093-3.076,1.864Zm-7.4-.753h2.135V21.615H72.542Zm-2.9,0h2.135V21.615H69.644Zm.772.753H68.526v5.236a3.656,3.656,0,0,0,7.311,0V24.411H73.956v5.236a1.771,1.771,0,1,1-3.541,0Zm-8.663,1.8h1.626v6.879h1.881V26.207h1.973v-1.8H65.269v-1.27a.587.587,0,0,1,.627-.627,1.6,1.6,0,0,1,1.338.814V21.268a1.9,1.9,0,0,0-1.33-.542,2.411,2.411,0,0,0-2.525,2.405v1.279H61.753Z" transform="translate(-38.783 120.619)" fill="#fff"/>
        <path id="Pfad_127" data-name="Pfad 127" d="M261.747-85.3A15.512,15.512,0,0,1,257.37-74.48a14.3,14.3,0,0,0-3.828,7.762,2.579,2.579,0,0,1-2.552,2.175h-9.677a2.553,2.553,0,0,1-2.54-2.162,14.453,14.453,0,0,0-3.855-7.788,15.526,15.526,0,0,1-4.351-10.641,15.548,15.548,0,0,1,15.486-15.758A15.579,15.579,0,0,1,261.747-85.3" transform="translate(-53.431 125.171)" fill="#fff"/>
        <path id="Pfad_128" data-name="Pfad 128" d="M253.592-57.58a1.879,1.879,0,0,1-1.956,1.79h-9.245a1.879,1.879,0,0,1-1.956-1.79,1.879,1.879,0,0,1,1.956-1.79h9.245a1.879,1.879,0,0,1,1.956,1.79" transform="translate(-54.287 121.569)" fill="#fff"/>
        <path id="Pfad_129" data-name="Pfad 129" d="M251.9-52.182a1.864,1.864,0,0,1-1.941,1.775h-5.549a1.863,1.863,0,0,1-1.941-1.775,1.863,1.863,0,0,1,1.941-1.775h5.549a1.864,1.864,0,0,1,1.941,1.775" transform="translate(-54.464 121.099)" fill="#fff"/>
        <path id="Pfad_130" data-name="Pfad 130" d="M246.411-72.186A12.911,12.911,0,0,0,259.322-85.1a12.911,12.911,0,0,0-12.911-12.911A12.911,12.911,0,0,0,233.5-85.1a12.911,12.911,0,0,0,12.911,12.911" transform="translate(-53.685 124.921)" fill="#ed8000"/>
        <path id="Pfad_131" data-name="Pfad 131" d="M254.718-80.342a8.436,8.436,0,0,1-7.812,4.983,8.376,8.376,0,0,1-7.857-5.009A1.021,1.021,0,0,1,239.6-81.7a1.023,1.023,0,0,1,.392-.078,1.021,1.021,0,0,1,.944.63,6.341,6.341,0,0,0,5.97,3.749,6.392,6.392,0,0,0,5.935-3.752,1.02,1.02,0,0,1,1.343-.532,1.022,1.022,0,0,1,.533,1.343m-5-8.653a2.114,2.114,0,0,1,2.113-2.112,2.114,2.114,0,0,1,2.113,2.112,2.113,2.113,0,0,1-2.113,2.113,2.114,2.114,0,0,1-2.113-2.113m-9.579,0a2.113,2.113,0,0,1,2.112-2.112,2.113,2.113,0,0,1,2.112,2.112,2.113,2.113,0,0,1-2.112,2.113,2.113,2.113,0,0,1-2.112-2.113" transform="translate(-54.16 124.322)" fill="#fff"/>
      </g>
    </g>
  </g>
</svg>
