<svg id="Ebene_1" data-name="Ebene 1" xmlns="http://www.w3.org/2000/svg" viewBox="0 0 125.69 300"><defs><style>.cls-1{fill:#fff;fill-rule:evenodd;}</style></defs><title>scroll-indicator</title><g id="Gruppe_51" data-name="Gruppe 51"><path id="Pfad_30" data-name="Pfad 30" class="cls-1" d="M150,0A63,63,0,0,0,87.16,62.84v83.43a62.84,62.84,0,0,0,125.68,0h0V62.84A63,63,0,0,0,150,0Zm54.16,146.27a54.16,54.16,0,0,1-108.32,0V62.84A54.33,54.33,0,0,1,147.52,8.75V47.81a10.23,10.23,0,0,0-7.71,9.87V86.44A10.21,10.21,0,0,0,150,96.62h0a10.21,10.21,0,0,0,10.18-10.18V57.68a10.22,10.22,0,0,0-7.7-9.87V8.75a54.33,54.33,0,0,1,51.68,54.09Z" transform="translate(-87.16)"/><path id="Pfad_31" data-name="Pfad 31" class="cls-1" d="M152.48,290.49V226.84h-5v63.65l-17.27-17.27-3.52,3.51L150,300h0l23.27-23.27-3.51-3.51Z" transform="translate(-87.16)"/></g></svg>