<?xml version="1.0" standalone="no"?>
<!DOCTYPE svg PUBLIC "-//W3C//DTD SVG 20010904//EN"
 "http://www.w3.org/TR/2001/REC-SVG-20010904/DTD/svg10.dtd">
<svg version="1.0" xmlns="http://www.w3.org/2000/svg"
 width="700.000000pt" height="700.000000pt" viewBox="0 0 700.000000 700.000000"
 preserveAspectRatio="xMidYMid meet">
<metadata>
Created by potrace 1.11, written by Peter Selinger 2001-2013
</metadata>
<g transform="translate(0.000000,700.000000) scale(0.100000,-0.100000)"
fill="#000000" stroke="none">
<path d="M1747 5835 c-1 -2 -42 -5 -92 -9 -542 -39 -1081 -300 -1370 -663 -77
-96 -90 -114 -120 -168 -82 -145 -125 -256 -149 -385 -19 -100 -14 -398 8
-479 110 -398 367 -709 766 -924 160 -86 388 -172 530 -200 14 -3 57 -12 95
-20 63 -14 130 -23 235 -33 61 -6 401 -5 411 1 5 4 9 -4 10 -17 0 -13 2 -32 3
-43 11 -90 19 -142 22 -159 2 -11 6 -38 10 -61 11 -79 46 -119 157 -186 126
-75 456 -237 639 -314 158 -67 150 -43 67 -207 -94 -188 -171 -293 -328 -448
-58 -58 -142 -133 -186 -165 -113 -85 -126 -111 -76 -164 27 -29 32 -30 82
-25 30 3 87 15 129 26 41 10 82 21 90 23 68 16 249 89 360 144 249 125 377
220 607 449 82 82 85 84 126 80 37 -4 299 -60 412 -88 55 -14 254 -48 318 -55
29 -3 59 -8 67 -10 8 -2 40 -7 70 -10 30 -3 71 -7 90 -10 19 -2 64 -7 100 -10
36 -3 72 -7 80 -10 8 -2 55 -7 104 -10 50 -4 99 -9 109 -11 72 -14 731 -22
822 -10 17 2 62 7 100 10 39 4 81 9 95 11 14 3 45 7 70 10 25 4 61 10 80 15
19 5 52 11 72 14 21 3 57 10 80 15 24 6 59 13 78 16 19 3 42 8 50 10 8 2 30 7
49 10 61 10 104 40 126 89 12 29 61 189 69 232 3 10 18 75 35 144 18 69 33
134 36 145 3 18 18 89 29 140 2 11 7 45 11 75 4 30 9 62 10 70 8 44 16 98 20
125 12 100 28 236 32 275 2 25 6 227 7 450 3 364 0 485 -18 630 -3 25 -8 65
-11 90 -3 25 -7 56 -10 70 -6 30 -9 52 -29 185 -17 109 -24 152 -31 175 -2 8
-7 29 -9 45 -3 17 -19 82 -35 145 -109 429 -107 424 -165 459 -26 16 -123 41
-251 66 -16 3 -41 8 -55 10 -38 8 -139 23 -192 29 -187 23 -211 25 -367 32
-186 9 -317 9 -511 0 -165 -7 -193 -10 -335 -26 -49 -6 -110 -13 -135 -16 -25
-2 -61 -7 -80 -9 -19 -3 -55 -7 -80 -10 -25 -3 -58 -7 -75 -10 -16 -3 -51 -7
-76 -10 -39 -4 -254 -40 -364 -60 -23 -5 -236 -52 -355 -80 -22 -5 -152 -40
-254 -69 l-90 -25 -94 100 c-276 292 -684 494 -1147 569 -115 18 -171 22 -323
24 -84 2 -153 2 -155 1z"/>
</g>
</svg>
