<?xml version="1.0" standalone="no"?>
<!DOCTYPE svg PUBLIC "-//W3C//DTD SVG 20010904//EN"
 "http://www.w3.org/TR/2001/REC-SVG-20010904/DTD/svg10.dtd">
<svg version="1.0" xmlns="http://www.w3.org/2000/svg"
 width="700.000000pt" height="700.000000pt" viewBox="0 0 700.000000 700.000000"
 preserveAspectRatio="xMidYMid meet">
<metadata>
Created by potrace 1.11, written by Peter Selinger 2001-2013
</metadata>
<g transform="translate(0.000000,700.000000) scale(0.100000,-0.100000)"
fill="#000000" stroke="none">
<path d="M1485 6376 c-43 -18 -50 -30 -86 -136 -17 -52 -242 -725 -500 -1495
-258 -770 -566 -1689 -684 -2042 l-215 -642 2 -695 3 -696 28 -27 c26 -26 33
-28 115 -28 95 0 120 12 140 65 5 14 10 303 10 680 l1 655 246 730 c135 402
248 737 250 745 2 8 153 458 335 1000 183 542 338 1005 345 1030 37 124 93
273 99 260 3 -8 84 -249 180 -535 273 -818 523 -1565 813 -2425 l267 -795 2
-661 c1 -721 0 -705 59 -733 41 -20 157 -18 190 3 51 33 50 21 51 646 l0 585
309 3 308 2 623 -622 c343 -343 628 -624 633 -626 9 -3 1241 1223 1422 1414
259 275 441 614 523 974 15 69 21 103 35 215 9 74 6 396 -4 455 -50 277 -94
420 -196 623 -124 249 -345 527 -539 680 -36 28 -67 54 -70 58 -3 3 -44 31
-92 63 -193 126 -478 237 -698 271 -25 4 -52 9 -61 10 -187 35 -623 21 -779
-25 -19 -6 -47 -12 -61 -15 -41 -8 -141 -41 -223 -75 -42 -18 -79 -30 -82 -27
-3 3 -26 54 -50 114 -25 59 -50 119 -55 133 -6 14 -86 207 -178 429 -164 398
-167 404 -209 435 l-44 31 -1066 2 c-851 1 -1073 -1 -1097 -11z m2035 -314 c7
-15 43 -103 82 -197 38 -93 76 -183 83 -200 26 -60 235 -573 235 -578 0 -3
-30 -27 -67 -53 -398 -284 -668 -681 -777 -1144 -25 -103 -28 -123 -43 -265
-16 -140 -9 -400 13 -545 40 -267 188 -611 360 -840 29 -38 51 -70 49 -72 -2
-2 -84 -2 -182 0 l-178 3 -307 917 c-169 504 -462 1380 -652 1947 -191 566
-346 1034 -346 1041 0 8 214 11 859 12 l858 0 13 -26z"/>
</g>
</svg>
