<?xml version="1.0" encoding="utf-8"?>
<!-- Generator: Adobe Illustrator 24.0.1, SVG Export Plug-In . SVG Version: 6.00 Build 0)  -->
<svg version="1.1" id="Ebene_1" xmlns="http://www.w3.org/2000/svg" xmlns:xlink="http://www.w3.org/1999/xlink" x="0px" y="0px"
	 viewBox="0 0 3192.2 3016.8" style="enable-background:new 0 0 3192.2 3016.8;" xml:space="preserve">
<style type="text/css">
	.st0{fill:#8C0940;}
	.st1{fill:#F5A700;}
	.st2{fill:#006669;}
</style>
<g>
	<path class="st0" d="M3049.4,1838.3c-0.6,29.8-18,60.1-44.6,73.2c-13,6.2-27.9,7.4-32.2,7.4c-14.3,0-53.9-6.8-72.5-47.1
		c-6.8-14.9-7.4-28.5-7.4-34.7c0-14.9,5.6-55.8,47.7-74.4c13-5.6,24.2-6.2,29.8-6.2c22.9,0,44.6,10.5,59.5,27.9
		C3047.5,1805.4,3049.4,1829,3049.4,1838.3 M3046.9,1700c-14.3-12.4-37.2-32.9-83.1-32.9c-25.4,0-83.7,8.1-127.7,59.5
		c-12.4,14.9-40.9,55.2-40.9,111c0,64.5,39.1,129,96.7,155c27.3,12.4,52.1,13.6,63.9,13.6c36.6,0,55.8-13,85-34.7
		c0,11.8,0,23.6-3.1,35.3c-6.2,20.5-22.3,37.8-42.8,44.6c-6.8,2.5-14.3,3.1-21.1,3.7c-21.1,0-34.7-8.7-40.9-14.3
		c-3.7-3.1-7.4-7.4-10.5-11.8h-111c6.2,17.4,11.8,32.2,22.9,47.1c42.8,57.1,117.2,60.2,136.4,60.2c65.7,0,109.7-34.1,127.1-51.5
		c31-32.3,34.7-67.6,37.2-111v-212.7h36.6v-89.3h-124.6V1700z M2391.5,1915.2v88.7h167.4v-89.3h-32.9v-84.3
		c2.5-31,5.6-42.2,16.1-54.6c11.2-12.4,26-20.5,42.8-20.5c10.5,0,20.5,3.1,29.1,8.1c19.8,12.4,21.1,31,22.3,55.2v185.4H2766v-88.7
		h-34.1v-133.9c0-6.8-1.2-31.6-11.2-53.3c-12.4-27.9-39.7-48.4-70.1-55.8c-14.3-3.7-29.2-4.3-34.1-4.3c-57.7,0-76.3,23.6-92.4,45.9
		v-40.3h-132.7v88.1h39.1v153.8H2391.5z M2195.6,1915.8v89.3h168.7v-89.3h-33.5v-243.1h-135.2v89.3h37.8v153.8H2195.6z
		 M1791.9,1915.8v88.7h166.8v-88.7h-34.1v-93.6c0.6-13,1.2-17.4,3.1-24.2c7.4-24.2,31.6-41.5,57-41.5c15.5,0,27.9,6.8,32.2,9.3
		c21.7,14.3,23.6,32.9,24.2,57.7v181.7h129v-89.3h-34.1v-107.9c-2.5-33.5-5-64.5-24.8-93c-29.8-41.5-80-43.4-94.3-43.4
		c-9.9,0-47.1,0-73.2,22.3c-6.2,5-9.3,8.1-18.6,19.8v-146.3h-133.3v88.1h39.1v260.4H1791.9z M1771.5,1670.9h-79.4v19.8
		c-14.3-9.3-37.2-27.3-78.7-27.3c-46.5,0-92.4,22.9-122.1,58.9c-37.2,44.6-40.9,93.6-40.9,114.1c0,75.6,45.3,121.5,66.3,138.3
		c41.5,34.1,85,37.8,104.8,37.8c55.8,0,109.1-27.9,139.5-73.8c8.1-11.8,13.6-22.9,22.9-50.2h-106.6c-16.1,18-28.5,30.4-53.9,31
		c-32.3-0.6-58.9-21.1-70.7-48.4c-6.8-15.5-6.8-27.3-6.8-34.1c0-47.1,31.6-68.2,47.7-75.6c11.8-5,21.7-5.6,26.7-5.6
		c26.7,0,43.4,14.9,50.2,21.1c3.7,3.1,7.4,6.8,10.5,11.2h90.5V1670.9z M1133.5,1828.4c1.9-14.3,11.8-49.6,52.7-63.3
		c11.2-3.7,20.5-4.3,25.4-4.3c28.5,0,55.8,18,67.6,44.6c6.2,14.3,6.8,26.7,6.8,32.9c0,31.6-19.8,61.4-49.6,72.5
		c-8.7,3.7-16.7,5-26.7,5.6c-34.7,0-56.4-24.2-62.6-33.5C1131.6,1861.2,1132.8,1837.6,1133.5,1828.4 M1416.8,1673.3h-125.9v29.1
		c-29.8-21.1-50.2-35.3-88-35.3c-25.4,0-85.6,8.7-129.6,63.3c-24.2,30.4-38.4,70.1-38.4,107.9c0,50.2,24.8,102.3,63.2,135.8
		c29.2,25.4,60.2,35.4,99.8,35.4c41.5,0,60.8-13,93-37.2v32.2h125.9v-89.3h-36.6V1762h36.6V1673.3z M755.9,1831.4
		c1.9-13.6,10.5-48.4,47.7-65.1c9.3-4.3,20.5-7.4,31-7.4c40.9,0,77.5,37.8,77.5,79.4s-39.7,79.4-80.6,79.4
		c-22.9,0-46.5-12.4-60.8-31.6C754.6,1864.3,755.2,1840.8,755.9,1831.4 M662.9,1832.1c-1.2,53.3,21.1,106,62,140.1
		c14.9,12.4,52.7,39.7,107.3,39.7c69.4,0,113.5-40.3,129-58.3c13.6-15.5,42.2-55.8,42.2-114.7c0-74.4-41.5-119-61.4-135.8
		c-42.2-34.7-88.1-39.1-107.9-39.1c-49,0-97.4,21.7-129,58.9C691.4,1738.4,664.7,1776.3,662.9,1832.1 M633.1,1567.9h-89.3v36
		c-27.9-22.9-39.7-29.2-57-34.7c-24.8-7.4-50.2-8.1-58.3-8.1c-31.6,0-103.5,6.2-160.6,71.9c-50.2,58.3-55.2,123.4-55.2,150.7
		c0,67.6,28.5,132.7,80.6,176.7c52.7,44.6,111.6,49,137,49c65.7,0,111-26.7,130.2-40.9c13-9.9,20.5-17.4,31.6-29.8
		c21.1-21.7,34.7-40.3,44-68.8c2.5-9.3,5-18.6,6.8-27.9H525.8c-4.3,8.1-8.1,15.5-13.6,22.9c-5.6,6.8-11.2,12.4-18,17.4
		c-18.6,14.3-35.4,21.7-58.3,21.7c-47.1,0-87.4-30.4-104.2-73.2c-2.5-7.4-8.7-23.6-8.7-45.3c0-48.4,26.7-92.4,71.9-110.4
		c18-6.8,31.6-7.4,39.7-7.4c42.2,0,65.7,22.3,75,34.1c8.7,9.3,16.7,23.6,18.6,26h104.8V1567.9z"/>
	<path class="st1" d="M1198.3,1237.2c-29-12.3-55.5-23.3-81.7-34.6c-67.5-29.1-133-62-195.8-100.3c-19.2-11.7-27-27.4-30.6-48.7
		c-23.8-140.5-21.7-282.2-18-423.7c1.2-44.3,7.8-117.9,10.1-141.6c3.5-45.9,29.5-62.3,61.5-80.9c96.1-56.1,197.6-100.3,302.3-136.7
		c122.5-42.6,248.1-74.9,375.8-97.4c66.8-11.8,134.4-18.9,201.8-27.3c89.9-11.2,180.3-15.1,270.8-11.7c96.6,3.7,192.4,15.6,286.8,38
		c26.5,6.3,39.6,20.5,45.6,46.2c12.9,54.8,29.2,108.8,41.1,163.7c10.1,46.6,16.2,94,23.4,141.2c16,105.8,14.7,212.4,12.5,318.8
		c-1.6,78.6-10.7,156.5-23.7,234.2c-13.1,77.7-32.5,153.6-53.6,229.4c-6.7,24.1-19,39.1-44.1,43.7c-44.8,8.3-89.3,18.6-134.2,26.1
		c-95,15.8-191,14.8-286.7,12.3c-48.7-1.3-97.4-6.5-146-11.6c-55.9-5.8-111.9-12-167.4-20.7c-46-7.3-91.5-18.3-137.1-28
		c-20.8-4.4-41.4-9.4-61.9-14.7c-15-3.9-26.3,0-37,11.5c-36.4,39-74.9,75.7-118.8,106.5c-86.7,60.9-181.7,101.4-285.9,120.2
		c-16.7,3-28.4-2.8-34.2-15.6c-5.6-12.3-2-24.5,14.3-34.8c37.3-23.6,67.3-55.3,98.4-86C1135.8,1365.1,1169.6,1305.3,1198.3,1237.2"
		/>
	<path class="st2" d="M1125.9,898.7c22.2-12.4,44.5-23.9,65.9-36.9c87.7-53,157.3-123,201.1-216.7c16.1-34.3,25.6-70.7,31.1-108.3
		c13-87.9-7.3-168.2-51.1-244.4c-47.8-83.2-117.3-143.1-199.1-190.2c-69.6-40.1-144.9-64.7-223.4-79.8
		c-66.9-12.9-134.9-15-202.5-9.8C641.6,20.7,540.5,49.5,447.1,102c-87.6,49.2-159.9,114.9-207.7,204.3
		c-27.4,51.1-44.7,105.7-44,164.9c0.5,40.2,0.8,80,12.6,119.3c18,59.8,47.3,113.3,88.1,160c63.9,73.2,142.8,125.2,232.8,161.1
		c58.8,23.4,120,38.4,182.3,46.4c44.3,5.7,89.6,5.4,134.4,5.4c25,0,49.9-5.3,74.9-7.3c5.8-0.5,13,0.7,17.5,4
		c37,26.8,73.5,54,110,81.5c29.5,22.2,58.6,44.9,88.1,67.2c4.4,3.3,9.7,5.2,14.4,8.1c7.8,4.8,15.3,3.7,22-1.6
		c7.4-5.8,10.3-13.3,7.4-23c-7.1-23.3-13.7-46.8-20.6-70.2c-11-37.8-22.1-75.5-33-113.3C1125.6,905.9,1126.1,902.6,1125.9,898.7"/>
	<path class="st2" d="M2939.3,2966.3v35.1h105.1V2966h-33.2v-69.9c0.8-18,1.9-35.5,12.2-49.3c13-17.2,30.9-20.2,38.6-20.2
		c14.1,0,23.7,6.9,27.9,9.9c1.9,1.5,6.5,5.4,9.9,11.5c5.7,9.9,7.3,21.8,8,45.8v72.6h-35.9v35.5h106.6v-35.5h-33.2v-77.6
		c-0.4-24.1-1.1-47.8-15.3-67.2c-13.8-19.1-37.8-28.3-60.4-28.3c-16.8,0-34,5-47.4,14.5c-4.2,3-9.2,8.4-13,12.2v-21.4h-69.5v35.1
		h33.2v132.6H2939.3z M2752.9,2879.2c1.9-7.3,4.2-13,8-19.5c12.6-19.1,36.7-30.9,59.6-30.9c22.9,0,46.2,11.5,58.4,30.6
		c3,4.6,5,8.8,8.8,19.5L2752.9,2879.2z M2927.5,2913.6c0.8-10.7,1.5-18.3,0-29c-2.3-18.3-11.1-38.6-22.1-53.1
		c-19.5-26.4-51.6-40.5-84.4-40.5c-47,0-73.3,26.7-84,40.1c-22.5,27.1-25.2,54.6-25.2,68.4c0,41.7,26.4,82.5,64.9,99.3
		c8,3.4,21.4,8,42.4,8c15.7,0,59.6-2.7,87.5-42c6.1-8.4,10.3-17.6,14.9-26.7l-40.5-0.4c-3.4,4.6-7.6,9.9-11.5,13.8
		c-17.2,17.2-40.5,19.1-48.5,19.1c-27.9,0-45.5-16-52-22.9c-13.4-14.1-14.9-24.8-17.2-34H2927.5z M2545.8,2938.1v63.4h30.9v-14.1
		c9.2,8,16,14.1,28.3,16.8c1.9,0.8,8.8,1.9,16,1.9c37.4,0,55-21.8,61.9-35.1c6.1-11.5,6.9-22.5,6.9-27.5c0-9.2-2.7-32.9-25.6-48.5
		c-4.2-2.7-8.4-5-17.6-8.4l-39.3-11.1c-2.7-0.8-24.1-6.1-24.1-25.2c0-2.3,0-6.9,3-12.6c2.7-5,9.6-13.8,24.1-13.8
		c15.3,0,23.3,9.2,26.7,13.8c1.9,3.1,3.1,5,5.4,11.8h34.8v-51.6h-28.7v12.6c-14.1-11.5-24.1-18-42.4-18c-24.5,0-45.5,14.1-54.6,37.4
		c-2.7,7.3-4.6,15.7-4.6,23.7c0,34,26,47.4,36.3,52c3.8,1.5,11.8,4.6,22.5,6.5c12.2,2.3,22.9,2.7,34,9.9c8,5.3,13.4,13.8,13.4,23.3
		c0,9.9-6.1,19.9-14.1,24.5c-5.4,3.1-12.2,5-18.3,5c-13.4,0-26.4-7.3-32.9-18.7c-2.7-4.6-3.8-8-6.1-18H2545.8z M2347.2,2879.2
		c1.9-7.3,4.2-13,8-19.5c12.6-19.1,36.7-30.9,59.6-30.9s46.2,11.5,58.4,30.6c3,4.6,5,8.8,8.8,19.5L2347.2,2879.2z M2521.8,2913.6
		c0.8-10.7,1.5-18.3,0-29c-2.3-18.3-11.1-38.6-22.2-53.1c-19.5-26.4-51.6-40.5-84.4-40.5c-47,0-73.4,26.7-84,40.1
		c-22.5,27.1-25.2,54.6-25.2,68.4c0,41.7,26.4,82.5,64.9,99.3c8,3.4,21.4,8,42.4,8c15.7,0,59.6-2.7,87.5-42
		c6.1-8.4,10.3-17.6,14.9-26.7l-40.5-0.4c-3.4,4.6-7.6,9.9-11.5,13.8c-17.2,17.2-40.5,19.1-48.5,19.1c-27.9,0-45.5-16-52-22.9
		c-13.4-14.1-14.9-24.8-17.2-34H2521.8z M2160.4,2967.5v34.4h104.7v-35.2h-33.6v-75.6c0.4-2.7,0.4-14.5,3.4-24.8
		c6.5-22.2,24.8-34.8,47-34.8c5.3,0,10.3,0.4,15.7,1.1v-40.1c-19.5,1.1-40.1,2.3-56.5,14.5c-5,3.8-10.7,10.3-11.5,11.5v-20.2h-69.2
		v35.1h33.6v134.1H2160.4z M1947.2,2896.4c1.2-23.3,14.9-48.5,37.4-60c4.6-2.3,15.7-6.9,29.8-7.3c29,0,54.6,17.6,64.9,44.3
		c3.1,8.4,5,18.3,5,27.1c0,20.6-8.8,40.5-23.7,54.3c-12.2,10.7-28.6,17.2-45.5,17.2c-27.1,0-43.9-16-50-23.7
		C1953,2934.3,1946.1,2915.2,1947.2,2896.4 M2081.3,2823.1c-9.9-9.2-13.4-12.2-19.5-16.1c-20.6-13-41.6-14.1-50.4-14.1
		c-42.8,0-79.8,27.1-95.5,66.9c-6.9,17.6-7.6,32.5-7.6,39.7c0,33.2,16.1,58.4,22.9,68c6.1,8.8,12.6,14.5,15.7,17.2
		c24.5,20.2,52.7,22.2,64.2,22.2c28.7,0,49.7-11.5,57.7-17.2c5-4.2,8.8-8.4,13.4-13.4v25.2h72.2V2966h-34.4v-232.3h-73v34.8h34.4
		V2823.1z M1658,2966.3v35.1h105.1V2966h-33.2v-69.9c0.8-18,1.9-35.5,12.2-49.3c13-17.2,30.9-20.2,38.6-20.2
		c14.1,0,23.7,6.9,27.9,9.9c1.9,1.5,6.5,5.4,9.9,11.5c5.7,9.9,7.3,21.8,8,45.8v72.6h-35.9v35.5h106.6v-35.5h-33.2v-77.6
		c-0.4-24.1-1.1-47.8-15.3-67.2c-13.8-19.1-37.8-28.3-60.4-28.3c-16.8,0-34,5-47.4,14.5c-4.2,3-9.2,8.4-13,12.2v-21.4h-69.5v35.1
		h33.2v132.6H1658z M1516.3,2780.3l41.3,107.4h-81L1516.3,2780.3z M1380.7,2965.6v34.8h100.5v-34.8h-33.2l17.2-45.8h105.8l17.6,46.2
		h-34.8v35.1h102.4V2966h-26.4l-94.4-233h-84.8v34h35.5l-5.7,14.9l-68.4,172.3l-3.8,11.5H1380.7z M1074,2879.2
		c1.9-7.3,4.2-13,8-19.5c12.6-19.1,36.7-30.9,59.6-30.9c22.9,0,46.2,11.5,58.4,30.6c3.1,4.6,5,8.8,8.8,19.5L1074,2879.2z
		 M1248.5,2913.6c0.8-10.7,1.5-18.3,0-29c-2.3-18.3-11.1-38.6-22.2-53.1c-19.5-26.4-51.6-40.5-84.4-40.5c-47,0-73.3,26.7-84,40.1
		c-22.5,27.1-25.2,54.6-25.2,68.4c0,41.7,26.4,82.5,64.9,99.3c8,3.4,21.4,8,42.4,8c15.7,0,59.6-2.7,87.5-42
		c6.1-8.4,10.3-17.6,14.9-26.7l-40.5-0.4c-3.4,4.6-7.6,9.9-11.5,13.8c-17.2,17.2-40.5,19.1-48.5,19.1c-27.9,0-45.5-16-52-22.9
		c-13.4-14.1-14.9-24.8-17.2-34H1248.5z M904.3,2798.3v34.8h34l-67.2,63c10.7,9.9,21.4,20.2,32.1,30.6c13.4,13,26,26.4,38.6,39.7
		h-24.1v35.9h102.4v-35.9h-26.4l-77.2-71.8l66.5-61.1h30.9v-35.1H904.3z M798.5,2966.3v35.5H899v-35.5h-28.7v-232.3h-71.8v34.8h34.4
		v197.5H798.5z M720.6,2775.7h39.3v-43.2h-39.3V2775.7z M687.4,2798.3v35.5h34.8V2966h-34v35.5h106.6V2966h-34.8v-167.7H687.4z
		 M501,2879.2c1.9-7.3,4.2-13,8-19.5c12.6-19.1,36.7-30.9,59.6-30.9c22.9,0,46.2,11.5,58.4,30.6c3,4.6,5,8.8,8.8,19.5L501,2879.2z
		 M675.5,2913.6c0.8-10.7,1.5-18.3,0-29c-2.3-18.3-11.1-38.6-22.1-53.1c-19.5-26.4-51.6-40.5-84.4-40.5c-47,0-73.3,26.7-84,40.1
		c-22.5,27.1-25.2,54.6-25.2,68.4c0,41.7,26.4,82.5,64.9,99.3c8,3.4,21.4,8,42.4,8c15.7,0,59.6-2.7,87.5-42
		c6.1-8.4,10.3-17.6,14.9-26.7l-40.5-0.4c-3.4,4.6-7.6,9.9-11.5,13.8c-17.2,17.2-40.5,19.1-48.5,19.1c-27.9,0-45.5-16-52-22.9
		c-13.4-14.1-14.9-24.8-17.2-34H675.5z M200.3,2966v35.5h106.2V2966h-33.2v-83.7h103.1v83.7h-33.6v35.5h106.6V2966H415v-198.3h34.4
		v-34.8H342.8v35.1h33.6v80.2H273.3v-80.6h33.2v-35.1H200.3v35.5h34.8V2966H200.3z"/>
	<path class="st0" d="M2239.4,1626h69.1v-261.8c-20.1,4.1-40.1,8.1-60.3,11.4c-2.9,0.5-5.9,0.6-8.8,1.1V1626z M2186.3,2225.1h-130.8
		v88h37.8v153.2h-37.8v89.3h168v-88.7h-31.6v-62c1.2-13.6,0.6-42.8,29.1-66.3c18-15.5,34.1-17.4,57.1-19.2v-98.6
		c-49,8.1-59.5,14.3-91.2,53.3L2186.3,2225.1z M1773.4,2358.4c4.4-11.2,6.8-16.1,9.9-21.1c15.5-24.2,43.4-37.8,70.7-37.8
		c36.6,0,60.2,21.7,68.8,31.6c7.4,8.7,10.5,16.1,14.3,27.3H1773.4z M1716.3,2285.9c-11.8,16.1-34.1,51.5-34.1,104.2
		c0,78.1,47.1,122.8,68.8,139.5c29.2,22.3,64.5,34.1,101.1,34.7c62.6,0,104.2-33.5,120.3-49.6c18.6-18,26-33.5,36.6-56.4l-98-0.6
		c-18.6,13.6-32.2,22.3-56.4,22.3c-9.9,0-42.8-2.5-63.9-27.3c-6.8-8.1-9.9-14.9-14.9-24.8h242.4c0.6-3.1,5-24.2,5-41.5
		c0-15.5-4.3-65.1-34.7-104.8c-11.8-15.5-43.4-48.4-94.9-60.8c-18.6-4.3-34.1-5-41.5-5C1774.6,2215.8,1731.8,2263.6,1716.3,2285.9
		 M1413.1,2224.5h-132.7v88.1h39.1v153.8h-39.1v88.7h167.4v-89.3H1415v-84.3c2.5-31,5.6-42.2,16.1-54.6c11.2-12.4,26-20.5,42.8-20.5
		c10.5,0,20.5,3.1,29.1,8.1c19.8,12.4,21.1,31,22.3,55.2V2555h129.6v-88.7h-34.1v-133.9c0-6.8-1.2-31.6-11.2-53.3
		c-12.4-27.9-39.7-48.4-70.1-55.8c-14.3-3.7-29.2-4.3-34.1-4.3c-57.7,0-76.3,23.6-92.4,45.9V2224.5z M1165.7,2225.1h-130.8v88h37.8
		v153.2h-37.8v89.3h168v-88.7h-31.6v-62c1.2-13.6,0.6-42.8,29.1-66.3c18-15.5,34.1-17.4,57.1-19.2v-98.6
		c-49,8.1-59.5,14.3-91.2,53.3L1165.7,2225.1z M331.8,2382c-2.5-7.4-8.7-23.6-8.7-45.3c0-48.4,26.7-92.4,71.9-110.4
		c18-6.8,31.6-7.4,39.7-7.4c42.2,0,65.7,22.3,75,34.1c8.7,9.3,16.7,23.6,18.6,26h104.8v-160h-89.3v36
		c-27.9-22.9-39.7-29.2-57.1-34.7c-24.8-7.4-50.2-8.1-58.3-8.1c-31.6,0-103.5,6.2-160.6,71.9c-50.2,58.3-55.2,123.4-55.2,150.7
		c0,57.6,20.9,113.3,59.3,155.8h-98.3c-50.1,0-90.8-40.8-90.8-90.8V425c0-50.1,40.8-90.8,90.8-90.8h52.5c4.2-9.3,8.3-18.7,13.2-27.8
		c7.7-14.4,16.3-28,25.3-41.3h-91C85.5,265,13.7,336.8,13.7,425v1974.9c0,88.2,71.7,159.9,159.9,159.9h238.9
		c6.8,0.5,13,0.8,17.7,0.8c65.7,0,111-26.7,130.2-40.9c13-9.9,20.5-17.4,31.6-29.8c21.1-21.7,34.7-40.3,44-68.8
		c2.5-9.3,5-18.6,6.8-27.9H525.8c-4.3,8.1-8.1,15.5-13.6,22.9c-5.6,6.8-11.2,12.4-18,17.4c-18.6,14.3-35.3,21.7-58.3,21.7
		C388.8,2455.2,348.5,2424.8,331.8,2382 M912.1,2389.4c0,41.5-39.7,79.4-80.6,79.4c-22.9,0-46.5-12.4-60.8-31.6
		c-16.1-21.7-15.5-45.3-14.9-54.6c1.9-13.6,10.5-48.4,47.7-65.1c9.3-4.3,20.5-7.4,31-7.4C875.5,2310.1,912.1,2347.9,912.1,2389.4
		 M941.9,2254.3c-42.2-34.7-88.1-39.1-107.9-39.1c-49,0-97.4,21.7-129,58.9c-13.6,15.5-40.3,53.3-42.2,109.1
		c-1.2,53.3,21.1,106,62,140.1c14.9,12.4,52.7,39.7,107.3,39.7c69.4,0,113.5-40.3,129-58.3c13.6-15.5,42.2-55.8,42.2-114.7
		C1003.3,2315.7,961.7,2271,941.9,2254.3"/>
</g>
</svg>
