<?xml version="1.0" encoding="utf-8"?>
<!-- Generator: Adobe Illustrator 24.3.0, SVG Export Plug-In . SVG Version: 6.00 Build 0)  -->
<svg version="1.1" id="Ebene_1" xmlns="http://www.w3.org/2000/svg" xmlns:xlink="http://www.w3.org/1999/xlink" x="0px" y="0px"
	 viewBox="0 0 1296.4 641.5" style="enable-background:new 0 0 1296.4 641.5;" xml:space="preserve">
<style type="text/css">
	.st0{fill:#96BD0D;}
	.st1{fill:#002B51;}
	.st2{fill:#FFFFFF;}
</style>
<path class="st0" d="M77.1,442.9c-2.1-5.2-5.1-9.7-8.9-13.4c-3.8-3.8-8.5-6.7-13.9-8.9c-5.4-2.1-11.4-3.2-18-3.2h-33v85h33
	c6.6,0,12.6-1.1,18-3.2c5.4-2.1,10.1-5.1,13.9-8.9c3.8-3.8,6.8-8.3,8.9-13.5c2.1-5.2,3.2-10.9,3.2-17
	C80.3,453.7,79.2,448,77.1,442.9 M58.5,471.2c-1.1,3.4-2.7,6.3-4.7,8.6c-2,2.3-4.5,4.2-7.5,5.4c-3,1.3-6.3,1.9-10.1,1.9H23v-54.6
	h13.2c3.8,0,7.1,0.6,10.1,1.9c3,1.3,5.5,3.1,7.5,5.4c2,2.3,3.6,5.2,4.7,8.6s1.6,7.2,1.6,11.4C60.1,464,59.5,467.8,58.5,471.2
	 M114.4,470.9c1.5,0,2.7,0.2,3.5,0.7c0.8,0.5,1.6,1.2,2.2,2.3l14.1,24.7c1.4,2.5,3.8,3.7,7.1,3.7h17.8l-18.1-29.6
	c-0.9-1.4-1.9-2.6-3-3.6c-1.1-1-2.4-1.8-3.7-2.4c2.8-1,5.2-2.4,7.3-4c2.1-1.6,3.9-3.5,5.4-5.6c1.5-2.1,2.6-4.3,3.3-6.8
	c0.7-2.4,1.1-5.1,1.1-7.8c0-3.6-0.6-7-1.9-10c-1.2-3.1-3.2-5.7-6-8c-2.7-2.3-6.3-4-10.6-5.3c-4.3-1.3-9.6-1.9-15.7-1.9H89.7v85h19.7
	v-31.4H114.4z M109.4,432.1h7.9c5.1,0,8.9,1,11.3,3.1c2.4,2.1,3.6,5,3.6,8.7c0,1.9-0.3,3.6-0.8,5.2c-0.5,1.6-1.4,3-2.6,4.2
	c-1.2,1.2-2.8,2.1-4.6,2.8c-1.9,0.7-4.2,1-6.9,1h-7.9V432.1z M164.5,497.1c0.5,1.2,1.2,2.3,2.2,3.2c0.9,0.9,2,1.6,3.2,2.1
	c1.2,0.5,2.6,0.8,4.1,0.8c1.4,0,2.8-0.3,4-0.8c1.2-0.5,2.3-1.2,3.3-2.1c0.9-0.9,1.7-2,2.2-3.2c0.5-1.2,0.8-2.5,0.8-3.9
	s-0.3-2.7-0.8-3.9c-0.5-1.2-1.3-2.3-2.2-3.1c-0.9-0.9-2-1.6-3.3-2.1c-1.2-0.5-2.6-0.8-4-0.8c-1.5,0-2.8,0.3-4.1,0.8
	c-1.2,0.5-2.3,1.2-3.2,2.1c-0.9,0.9-1.6,1.9-2.2,3.1c-0.5,1.2-0.8,2.5-0.8,3.9S164,495.9,164.5,497.1 M291.2,442.9
	c-2.1-5.2-5.1-9.7-9-13.4c-3.8-3.8-8.5-6.7-13.9-8.9c-5.4-2.1-11.4-3.2-18-3.2h-33v85h33c6.6,0,12.6-1.1,18-3.2
	c5.4-2.1,10.1-5.1,13.9-8.9c3.8-3.8,6.8-8.3,9-13.5c2.1-5.2,3.2-10.9,3.2-17C294.4,453.7,293.3,448,291.2,442.9 M272.6,471.2
	c-1.1,3.4-2.7,6.3-4.7,8.6c-2,2.3-4.5,4.2-7.5,5.4c-3,1.3-6.3,1.9-10.1,1.9h-13.2v-54.6h13.2c3.8,0,7.1,0.6,10.1,1.9
	c3,1.3,5.5,3.1,7.5,5.4c2,2.3,3.6,5.2,4.7,8.6c1.1,3.4,1.6,7.2,1.6,11.4C274.2,464,273.6,467.8,272.6,471.2 M325.4,417.3h-19.8v85
	h19.8V417.3z M341.1,417.3v85h54.7v-15.2h-34.9v-20.2h26.7v-14.6h-26.7v-19.8h34.9v-15.2H341.1z M401.2,417.3V433h23.9v69.3h19.7
	V433h23.9v-15.6H401.2z M496.6,417.3h-19.7v85H528v-15.7h-31.5V417.3z M559,417.3h-19.8v85H559V417.3z M585.1,417.3h-10.4v85h17.4
	v-45.5c0-1.2,0-2.6-0.1-4c-0.1-1.4-0.2-2.9-0.3-4.3l40.1,50.6c1,1.2,2,2.1,3,2.6c1.1,0.5,2.3,0.7,3.8,0.7h10.3v-85h-17.4v45
	c0,1.4,0,2.8,0.1,4.3c0.1,1.5,0.2,3.1,0.3,4.8l-40.3-51c-0.5-0.7-1-1.2-1.5-1.6c-0.4-0.4-0.9-0.7-1.3-0.9c-0.5-0.2-1-0.4-1.6-0.4
	C586.6,417.4,585.9,417.3,585.1,417.3 M736.8,442.9c-2.1-5.2-5.1-9.7-9-13.4c-3.8-3.8-8.5-6.7-13.9-8.9c-5.4-2.1-11.4-3.2-18-3.2
	h-33v85h33c6.6,0,12.6-1.1,18-3.2c5.4-2.1,10.1-5.1,13.9-8.9c3.8-3.8,6.8-8.3,9-13.5c2.1-5.2,3.2-10.9,3.2-17
	C739.9,453.7,738.9,448,736.8,442.9 M718.1,471.2c-1.1,3.4-2.7,6.3-4.7,8.6c-2,2.3-4.5,4.2-7.5,5.4c-3,1.3-6.3,1.9-10.1,1.9h-13.2
	v-54.6h13.2c3.8,0,7.1,0.6,10.1,1.9c3,1.3,5.5,3.1,7.5,5.4c2,2.3,3.6,5.2,4.7,8.6c1.1,3.4,1.6,7.2,1.6,11.4
	C719.8,464,719.2,467.8,718.1,471.2 M798.9,502.3h17.8l34.1-85h-16c-1.6,0-3,0.4-4.1,1.3c-1.1,0.9-1.9,1.9-2.3,2.9l-16.3,45.5
	c-0.7,2-1.4,4.1-2.1,6.5c-0.7,2.3-1.4,4.8-1.9,7.3c-0.7-2.6-1.4-5-2.1-7.3c-0.8-2.3-1.5-4.5-2.2-6.5l-16.4-45.5
	c-0.5-1.3-1.2-2.3-2.3-3.1c-1.1-0.8-2.5-1.2-4.2-1.2h-15.9L798.9,502.3z M935,442.7c-2.1-5.3-5.1-9.9-9-13.8
	c-3.8-3.9-8.5-7-13.9-9.2s-11.4-3.4-18-3.4c-6.6,0-12.6,1.1-18.1,3.3c-5.4,2.2-10.1,5.3-14,9.2c-3.9,3.9-6.9,8.5-9,13.8
	c-2.1,5.3-3.2,11-3.2,17.1c0,6.1,1.1,11.9,3.2,17.1c2.1,5.3,5.1,9.9,9,13.8c3.9,3.9,8.5,7,14,9.2c5.4,2.2,11.5,3.3,18.1,3.3
	c6.6,0,12.6-1.1,18-3.3s10.1-5.3,13.9-9.2c3.8-3.9,6.8-8.5,9-13.8c2.1-5.3,3.2-11,3.2-17.1C938.2,453.7,937.1,448,935,442.7
	 M916.4,471.2c-1.1,3.4-2.7,6.2-4.7,8.5s-4.5,4.1-7.5,5.3c-3,1.2-6.3,1.8-10.1,1.8c-3.8,0-7.2-0.6-10.2-1.8c-3-1.2-5.5-3-7.5-5.3
	c-2-2.3-3.6-5.2-4.7-8.5c-1.1-3.4-1.6-7.2-1.6-11.4c0-4.2,0.5-8,1.6-11.3c1.1-3.4,2.7-6.2,4.7-8.5c2-2.3,4.5-4.1,7.5-5.4
	c3-1.2,6.4-1.9,10.2-1.9c3.8,0,7.1,0.6,10.1,1.9c3,1.2,5.5,3,7.5,5.4s3.6,5.2,4.7,8.5c1.1,3.4,1.6,7.1,1.6,11.3
	C918,464,917.5,467.8,916.4,471.2 M967.3,417.3h-19.7v85h51.2v-15.7h-31.5V417.3z M1027.8,417.3h-19.7v85h19.7v-36.1h4.8
	c1.8,0,3.3,0.2,4.3,0.7c1.1,0.4,2,1.2,2.7,2.3l19.2,29.6c0.4,0.6,0.8,1.1,1.2,1.5c0.4,0.4,0.9,0.8,1.5,1.1c0.6,0.3,1.3,0.5,2.1,0.7
	c0.8,0.2,1.8,0.2,2.9,0.2h17.6l-25.7-39.4c-1-1.6-2.1-2.9-3.4-3.8c-1.2-1-2.6-1.7-4.1-2.2c1-0.5,2-1.2,3-2c1-0.8,1.9-1.8,2.8-3.1
	l25.2-34.3h-17.1c-1.9,0-3.6,0.3-4.9,0.8c-1.3,0.5-2.5,1.6-3.6,3.1l-19.1,27.8c-1.3,1.8-3.4,2.7-6.3,2.7h-3.1V417.3z M1091.4,417.3
	v85h54.7v-15.2h-34.9v-20.2h26.7v-14.6h-26.7v-19.8h34.9v-15.2H1091.4z M1182,470.9c1.5,0,2.7,0.2,3.5,0.7c0.8,0.5,1.6,1.2,2.2,2.3
	l14.1,24.7c1.4,2.5,3.8,3.7,7.1,3.7h17.8l-18.1-29.6c-0.9-1.4-1.9-2.6-3-3.6c-1.1-1-2.4-1.8-3.7-2.4c2.8-1,5.2-2.4,7.3-4
	c2.1-1.6,3.9-3.5,5.4-5.6c1.5-2.1,2.6-4.3,3.3-6.8c0.7-2.4,1.1-5.1,1.1-7.8c0-3.6-0.6-7-1.9-10c-1.2-3.1-3.2-5.7-6-8
	c-2.7-2.3-6.3-4-10.6-5.3c-4.3-1.3-9.6-1.9-15.7-1.9h-27.6v85h19.7v-31.4H1182z M1177,432.1h7.9c5.1,0,8.9,1,11.3,3.1
	c2.4,2.1,3.6,5,3.6,8.7c0,1.9-0.3,3.6-0.8,5.2c-0.5,1.6-1.4,3-2.6,4.2c-1.2,1.2-2.7,2.1-4.6,2.8c-1.9,0.7-4.2,1-6.9,1h-7.9V432.1z
	 M1225.5,417.3V433h23.9v69.3h19.7V433h23.9v-15.6H1225.5z"/>
<path class="st1" d="M5.1,550.1v8h40l-41,57.7c-0.6,0.9-1,1.9-1,2.9v3.8h54.1v-8H16L57,557c0.7-1,1.1-2.1,1.1-3.2v-3.6H5.1z
	 M106.8,589.7c0-2.9-0.4-5.5-1.2-7.9c-0.8-2.4-1.9-4.4-3.4-6.1c-1.5-1.7-3.4-3-5.6-3.9c-2.2-0.9-4.8-1.4-7.6-1.4
	c-4,0-7.6,0.7-10.9,2c-3.3,1.3-6.3,3.4-9.1,6.1l1.6,2.9c0.3,0.5,0.6,0.9,1.1,1.2c0.5,0.3,1,0.5,1.6,0.5c0.8,0,1.6-0.3,2.3-0.8
	c0.8-0.6,1.7-1.2,2.8-1.9c1.1-0.7,2.4-1.3,3.9-1.9c1.5-0.6,3.3-0.8,5.5-0.8c3.3,0,5.8,1,7.5,3.1c1.7,2.1,2.5,5.1,2.5,9.1v4
	c-5.8,0-10.7,0.5-14.7,1.4c-4,0.9-7.2,2.1-9.7,3.6c-2.5,1.5-4.3,3.1-5.4,5c-1.1,1.9-1.7,3.8-1.7,5.8c0,2.3,0.4,4.3,1.1,6.1
	c0.8,1.7,1.8,3.1,3.1,4.2c1.3,1.1,2.8,2,4.5,2.5c1.7,0.6,3.6,0.8,5.6,0.8c2,0,3.7-0.2,5.3-0.5c1.6-0.3,3.1-0.8,4.5-1.5
	c1.4-0.7,2.8-1.5,4-2.4c1.3-1,2.6-2,3.9-3.3l1,4.7c0.2,0.9,0.5,1.4,1.1,1.7c0.5,0.3,1.2,0.4,2.1,0.4h4V589.7z M80.2,616.5
	c-1-0.3-1.9-0.7-2.6-1.4c-0.7-0.6-1.3-1.4-1.8-2.4c-0.4-1-0.7-2.2-0.7-3.5c0-1.4,0.4-2.7,1.2-3.9c0.8-1.1,2.1-2.2,4-3
	c1.8-0.8,4.2-1.5,7.1-2.1c2.9-0.5,6.4-0.8,10.5-0.8v10.6c-1,1.1-2,2-3.1,2.9c-1.1,0.8-2.2,1.6-3.3,2.1c-1.2,0.6-2.4,1-3.7,1.4
	c-1.3,0.3-2.8,0.5-4.3,0.5C82.3,616.9,81.2,616.8,80.2,616.5 M129.4,622.4v-37.7c2-2.2,4.1-3.9,6.4-5.2c2.3-1.3,4.8-1.9,7.5-1.9
	c3.6,0,6.3,1.1,8.1,3.2c1.8,2.1,2.7,5.1,2.7,9v32.6h9v-32.6c0-2.9-0.4-5.5-1.1-7.9c-0.7-2.4-1.8-4.4-3.3-6.1c-1.4-1.7-3.2-3-5.3-3.9
	c-2.1-0.9-4.6-1.4-7.4-1.4c-3.5,0-6.5,0.7-9.2,2.1c-2.7,1.4-5.1,3.3-7.3,5.6v-30.1h-9v74.4H129.4z M185.5,622.4v-37.7
	c2-2.2,4.1-3.9,6.4-5.2c2.3-1.3,4.8-1.9,7.4-1.9c3.6,0,6.3,1.1,8.1,3.2c1.8,2.1,2.6,5.1,2.6,9v32.6h9v-32.6c0-2.9-0.4-5.5-1.1-7.9
	s-1.8-4.4-3.3-6.1c-1.4-1.7-3.2-3-5.4-3.9c-2.1-0.9-4.6-1.4-7.4-1.4c-3.6,0-6.8,0.8-9.5,2.3c-2.7,1.5-5.2,3.5-7.4,6l-0.7-5.6
	c-0.3-1.2-1.1-1.9-2.4-1.9h-5.4v51.1H185.5z M270.3,589.7c0-2.9-0.4-5.5-1.2-7.9c-0.8-2.4-1.9-4.4-3.4-6.1c-1.5-1.7-3.4-3-5.6-3.9
	c-2.2-0.9-4.8-1.4-7.6-1.4c-4,0-7.6,0.7-10.9,2c-3.3,1.3-6.3,3.4-9.1,6.1l1.6,2.9c0.3,0.5,0.6,0.9,1.1,1.2c0.5,0.3,1,0.5,1.6,0.5
	c0.8,0,1.6-0.3,2.3-0.8c0.8-0.6,1.7-1.2,2.8-1.9c1.1-0.7,2.4-1.3,3.9-1.9c1.5-0.6,3.3-0.8,5.5-0.8c3.3,0,5.8,1,7.6,3.1
	c1.7,2.1,2.5,5.1,2.5,9.1v4c-5.8,0-10.7,0.5-14.7,1.4c-4,0.9-7.2,2.1-9.7,3.6c-2.5,1.5-4.3,3.1-5.4,5c-1.1,1.9-1.7,3.8-1.7,5.8
	c0,2.3,0.4,4.3,1.1,6.1c0.8,1.7,1.8,3.1,3.1,4.2c1.3,1.1,2.8,2,4.5,2.5c1.7,0.6,3.6,0.8,5.6,0.8c2,0,3.7-0.2,5.3-0.5
	c1.6-0.3,3.1-0.8,4.5-1.5c1.4-0.7,2.8-1.5,4-2.4c1.3-1,2.6-2,3.9-3.3l1,4.7c0.2,0.9,0.5,1.4,1.1,1.7c0.5,0.3,1.2,0.4,2.1,0.4h4
	V589.7z M243.7,616.5c-1-0.3-1.9-0.7-2.6-1.4c-0.7-0.6-1.3-1.4-1.8-2.4c-0.4-1-0.7-2.2-0.7-3.5c0-1.4,0.4-2.7,1.2-3.9
	c0.8-1.1,2.1-2.2,4-3c1.8-0.8,4.2-1.5,7.1-2.1c2.9-0.5,6.4-0.8,10.6-0.8v10.6c-1,1.1-2,2-3.1,2.9c-1.1,0.8-2.2,1.6-3.3,2.1
	c-1.2,0.6-2.4,1-3.7,1.4c-1.3,0.3-2.8,0.5-4.3,0.5C245.8,616.9,244.7,616.8,243.7,616.5 M292.9,622.4v-32.6c1.4-3.5,3.2-6.1,5.3-7.9
	c2.1-1.8,4.7-2.7,7.8-2.7c1.7,0,3.1,0.2,4.1,0.5c1,0.3,1.7,0.5,2.2,0.5c0.8,0,1.3-0.4,1.6-1.3l1.2-6.7c-1-0.6-2-1-3.2-1.3
	c-1.1-0.3-2.4-0.5-3.8-0.5c-3.5,0-6.5,1-9.1,3c-2.6,2-4.7,4.8-6.5,8.4l-0.6-8c-0.1-0.9-0.4-1.5-0.8-1.9c-0.4-0.4-1-0.6-2-0.6h-5.2
	v51.1H292.9z M360.3,571.3h-38v7.1h27.5L322,615.5c-0.4,0.5-0.7,1.1-0.9,1.7c-0.2,0.6-0.3,1.1-0.3,1.5v3.7h38.5v-7h-27.9l27.7-36.9
	c0.4-0.5,0.7-1,0.9-1.6c0.2-0.6,0.4-1.2,0.4-1.8V571.3z M393.5,622c2.2-0.8,4.1-2,5.6-3.4l-2.6-4.3c-0.4-0.6-0.8-0.9-1.3-0.9
	c-0.3,0-0.6,0.1-0.9,0.4c-0.4,0.3-0.8,0.5-1.3,0.8c-0.5,0.3-1.1,0.6-1.8,0.8c-0.7,0.3-1.5,0.4-2.4,0.4c-1.7,0-3-0.5-4-1.6
	c-1-1-1.6-2.6-1.6-4.8v-30.7h14.6v-6.5h-14.6v-17.6h-4.5c-0.6,0-1,0.2-1.4,0.5c-0.4,0.3-0.6,0.7-0.7,1.2l-2.1,15.8l-8.4,1.1v3.6
	c0,0.7,0.2,1.2,0.6,1.5c0.4,0.3,0.8,0.5,1.4,0.5h6.2v31.3c0,4.2,1.1,7.5,3.3,9.7c2.2,2.3,5.3,3.4,9.3,3.4
	C389.1,623.2,391.3,622.8,393.5,622 M417.9,639.8v-22.6c1.7,1.9,3.7,3.4,5.9,4.4c2.2,1,4.9,1.6,8.1,1.6c3.4,0,6.5-0.7,9.3-2
	c2.7-1.4,5.1-3.2,6.9-5.6c1.9-2.4,3.3-5.2,4.3-8.4c1-3.2,1.5-6.8,1.5-10.5c0-4.2-0.5-8-1.4-11.3c-0.9-3.3-2.2-6-3.9-8.2
	c-1.7-2.2-3.7-3.9-6.1-5c-2.4-1.1-5-1.7-8-1.7c-3.7,0-6.9,0.8-9.7,2.4c-2.8,1.6-5.3,3.7-7.5,6.4l-0.8-6.1c-0.3-1.2-1.1-1.9-2.4-1.9
	h-5.4v68.5H417.9z M437.2,578.7c1.6,0.7,3,1.8,4.1,3.4c1.1,1.5,2,3.5,2.5,5.9c0.6,2.4,0.9,5.2,0.9,8.6c0,6.3-1.3,11.1-3.8,14.5
	c-2.6,3.4-6.2,5.1-11,5.1c-2.4,0-4.6-0.5-6.6-1.4c-2-0.9-3.8-2.5-5.4-4.7v-24.7c1.8-2.5,3.9-4.4,6.1-5.7c2.2-1.3,4.8-2,7.7-2
	C433.7,577.6,435.6,578,437.2,578.7 M473.6,622.4v-32.6c1.4-3.5,3.2-6.1,5.3-7.9c2.1-1.8,4.7-2.7,7.9-2.7c1.7,0,3.1,0.2,4.1,0.5
	c1,0.3,1.7,0.5,2.2,0.5c0.8,0,1.3-0.4,1.6-1.3l1.2-6.7c-1-0.6-2-1-3.2-1.3c-1.1-0.3-2.4-0.5-3.8-0.5c-3.5,0-6.5,1-9.1,3
	c-2.6,2-4.7,4.8-6.5,8.4l-0.6-8c-0.1-0.9-0.4-1.5-0.8-1.9c-0.4-0.4-1-0.6-2-0.6h-5.1v51.1H473.6z M541,589.7c0-2.9-0.4-5.5-1.2-7.9
	c-0.8-2.4-1.9-4.4-3.4-6.1c-1.5-1.7-3.4-3-5.6-3.9c-2.2-0.9-4.8-1.4-7.6-1.4c-4,0-7.6,0.7-10.9,2c-3.3,1.3-6.3,3.4-9.1,6.1l1.6,2.9
	c0.3,0.5,0.6,0.9,1.1,1.2c0.4,0.3,1,0.5,1.6,0.5c0.8,0,1.6-0.3,2.3-0.8c0.8-0.6,1.7-1.2,2.8-1.9c1.1-0.7,2.4-1.3,3.9-1.9
	c1.5-0.6,3.3-0.8,5.5-0.8c3.3,0,5.8,1,7.5,3.1c1.7,2.1,2.6,5.1,2.6,9.1v4c-5.8,0-10.7,0.5-14.7,1.4c-4,0.9-7.2,2.1-9.7,3.6
	c-2.5,1.5-4.3,3.1-5.4,5c-1.1,1.9-1.7,3.8-1.7,5.8c0,2.3,0.4,4.3,1.1,6.1c0.8,1.7,1.8,3.1,3.1,4.2c1.3,1.1,2.8,2,4.5,2.5
	c1.7,0.6,3.6,0.8,5.6,0.8c1.9,0,3.7-0.2,5.3-0.5c1.6-0.3,3.1-0.8,4.5-1.5c1.4-0.7,2.8-1.5,4-2.4c1.3-1,2.6-2,3.9-3.3l1,4.7
	c0.2,0.9,0.5,1.4,1.1,1.7c0.5,0.3,1.2,0.4,2.1,0.4h4V589.7z M514.4,616.5c-1-0.3-1.9-0.7-2.6-1.4c-0.7-0.6-1.3-1.4-1.8-2.4
	c-0.4-1-0.7-2.2-0.7-3.5c0-1.4,0.4-2.7,1.2-3.9c0.8-1.1,2.1-2.2,4-3c1.8-0.8,4.2-1.5,7.1-2.1c2.9-0.5,6.4-0.8,10.6-0.8v10.6
	c-1,1.1-2,2-3.1,2.9c-1.1,0.8-2.2,1.6-3.3,2.1c-1.2,0.6-2.4,1-3.7,1.4s-2.8,0.5-4.3,0.5C516.5,616.9,515.4,616.8,514.4,616.5
	 M548.7,622.4h8c0.7,0,1.2-0.2,1.6-0.6c0.4-0.4,0.7-0.8,1.1-1.3l11.9-17.4c0.5-0.8,0.8-1.7,1.1-2.6l12.9,20c0.3,0.5,0.6,0.9,1,1.3
	c0.4,0.4,1,0.6,1.7,0.6h8.6l-17.9-26.7l17.2-24.4h-8.3c-0.5,0-0.9,0.1-1.3,0.4c-0.3,0.3-0.7,0.7-1,1.1l-11,16.2
	c-0.6,0.9-1,1.9-1.3,2.8l-12.5-19.2c-0.3-0.4-0.6-0.8-0.9-1c-0.3-0.2-0.9-0.4-1.6-0.4h-8.6l17.2,24.9L548.7,622.4z M606.5,622.4h9
	v-51.1h-9V622.4z M617,552.7c-0.3-0.8-0.8-1.5-1.4-2.1c-0.6-0.6-1.3-1.1-2-1.4c-0.8-0.3-1.6-0.5-2.5-0.5c-0.9,0-1.7,0.2-2.4,0.5
	c-0.8,0.3-1.4,0.8-2,1.4c-0.6,0.6-1.1,1.3-1.4,2.1c-0.3,0.8-0.5,1.6-0.5,2.5s0.2,1.7,0.5,2.4c0.3,0.8,0.8,1.4,1.4,2
	c0.6,0.6,1.3,1,2,1.4c0.8,0.3,1.6,0.5,2.4,0.5c0.9,0,1.7-0.2,2.5-0.5c0.8-0.3,1.5-0.8,2-1.4c0.6-0.6,1.1-1.3,1.4-2
	c0.4-0.8,0.5-1.6,0.5-2.4S617.4,553.5,617,552.7 M662.7,576.4c-2-1.8-4.3-3.3-6.9-4.4c-2.7-1.1-5.7-1.6-9.1-1.6
	c-2.9,0-5.5,0.4-7.7,1.2c-2.3,0.8-4.2,1.9-5.7,3.3c-1.5,1.4-2.7,2.9-3.5,4.7c-0.8,1.8-1.2,3.7-1.2,5.6c0,2.2,0.4,4,1.1,5.6
	c0.8,1.5,1.8,2.8,3,3.9c1.2,1,2.7,1.9,4.3,2.6c1.6,0.7,3.2,1.3,4.9,1.8c1.7,0.5,3.3,1,4.9,1.5c1.6,0.5,3,1.1,4.3,1.7
	c1.2,0.7,2.2,1.4,3,2.4s1.1,2.1,1.1,3.5c0,1.1-0.2,2.2-0.6,3.2c-0.4,1-1.1,1.9-1.9,2.7c-0.9,0.8-2,1.4-3.3,1.8
	c-1.3,0.5-2.8,0.7-4.6,0.7c-2.1,0-3.8-0.2-5.1-0.7c-1.4-0.5-2.5-1-3.5-1.6c-1-0.6-1.8-1.1-2.4-1.6c-0.7-0.5-1.3-0.7-1.9-0.7
	s-1.1,0.1-1.5,0.3c-0.4,0.2-0.7,0.6-1,1l-2.1,3.4c2,1.8,4.5,3.3,7.4,4.5c2.9,1.2,6.1,1.7,9.7,1.7c3.1,0,5.9-0.4,8.3-1.3
	c2.4-0.8,4.4-2,6.1-3.5c1.7-1.5,2.9-3.2,3.7-5.2c0.8-2,1.3-4.2,1.3-6.5c0-2.1-0.4-3.8-1.1-5.3c-0.8-1.5-1.8-2.7-3-3.7
	c-1.2-1-2.7-1.8-4.2-2.5c-1.6-0.7-3.2-1.3-4.9-1.8c-1.7-0.6-3.3-1.1-4.9-1.6c-1.6-0.5-3-1.1-4.2-1.7c-1.2-0.6-2.2-1.4-3-2.3
	c-0.8-0.9-1.1-2-1.1-3.3c0-1,0.2-2,0.7-2.9c0.5-0.9,1.1-1.7,2-2.3c0.9-0.7,1.9-1.2,3.1-1.6c1.2-0.4,2.6-0.6,4.1-0.6
	c1.8,0,3.3,0.2,4.5,0.6c1.3,0.4,2.4,0.8,3.3,1.3c0.9,0.5,1.7,0.9,2.3,1.2c0.6,0.4,1.2,0.6,1.7,0.6c0.8,0,1.5-0.4,1.9-1.1
	L662.7,576.4z M732.2,589.7c0-2.9-0.4-5.5-1.2-7.9c-0.8-2.4-1.9-4.4-3.4-6.1c-1.5-1.7-3.4-3-5.6-3.9c-2.2-0.9-4.8-1.4-7.6-1.4
	c-4,0-7.6,0.7-10.9,2c-3.3,1.3-6.3,3.4-9.1,6.1l1.6,2.9c0.3,0.5,0.6,0.9,1.1,1.2c0.4,0.3,1,0.5,1.6,0.5c0.8,0,1.6-0.3,2.3-0.8
	c0.8-0.6,1.7-1.2,2.8-1.9c1.1-0.7,2.4-1.3,3.9-1.9c1.5-0.6,3.3-0.8,5.5-0.8c3.3,0,5.8,1,7.5,3.1c1.7,2.1,2.6,5.1,2.6,9.1v4
	c-5.8,0-10.7,0.5-14.7,1.4s-7.2,2.1-9.7,3.6c-2.5,1.5-4.3,3.1-5.4,5c-1.1,1.9-1.7,3.8-1.7,5.8c0,2.3,0.4,4.3,1.1,6.1
	c0.8,1.7,1.8,3.1,3.1,4.2c1.3,1.1,2.8,2,4.5,2.5c1.7,0.6,3.6,0.8,5.6,0.8c1.9,0,3.7-0.2,5.3-0.5c1.6-0.3,3.1-0.8,4.5-1.5
	c1.4-0.7,2.8-1.5,4-2.4c1.3-1,2.6-2,3.9-3.3l1,4.7c0.2,0.9,0.5,1.4,1.1,1.7c0.5,0.3,1.2,0.4,2.1,0.4h4V589.7z M705.6,616.5
	c-1-0.3-1.9-0.7-2.6-1.4c-0.7-0.6-1.3-1.4-1.8-2.4c-0.4-1-0.7-2.2-0.7-3.5c0-1.4,0.4-2.7,1.2-3.9c0.8-1.1,2.1-2.2,4-3
	c1.8-0.8,4.2-1.5,7.1-2.1c2.9-0.5,6.4-0.8,10.6-0.8v10.6c-1,1.1-2,2-3.1,2.9c-1.1,0.8-2.2,1.6-3.3,2.1c-1.2,0.6-2.4,1-3.7,1.4
	s-2.8,0.5-4.3,0.5C707.7,616.9,706.6,616.8,705.6,616.5 M754.9,622.4v-38.1c1.6-2.1,3.3-3.7,5.2-4.9c1.9-1.2,4-1.8,6.2-1.8
	c3.2,0,5.6,1,7.2,3c1.6,2,2.5,5.1,2.5,9.2v32.6h9v-32.6c0-2,0.3-3.8,0.9-5.3c0.6-1.5,1.4-2.8,2.4-3.8c1-1,2.2-1.8,3.5-2.3
	c1.3-0.5,2.7-0.8,4.2-0.8c3.3,0,5.9,1,7.6,3.1c1.7,2.1,2.6,5.1,2.6,9.1v32.6h9v-32.6c0-3.1-0.4-5.8-1.2-8.3
	c-0.8-2.4-1.9-4.4-3.4-6.1c-1.5-1.6-3.2-2.9-5.4-3.8s-4.5-1.3-7.2-1.3c-1.7,0-3.3,0.2-5,0.6c-1.6,0.4-3.2,1-4.6,1.9
	c-1.4,0.9-2.8,2-3.9,3.3c-1.2,1.3-2.1,2.9-2.8,4.8c-0.9-3.3-2.5-5.9-4.6-7.8s-4.9-2.9-8.4-2.9c-3.1,0-5.8,0.7-8.2,2.2
	c-2.3,1.5-4.5,3.4-6.3,5.7l-0.7-5.3c-0.3-1.2-1.1-1.9-2.4-1.9h-5.4v51.1H754.9z M860.4,550.1h-9.7v72.4h9.7v-33.1h4.4
	c0.8,0,1.5,0,2,0.1c0.6,0.1,1,0.2,1.5,0.4c0.4,0.2,0.8,0.4,1.1,0.7c0.3,0.3,0.7,0.6,1,1l25,28.7c0.3,0.3,0.5,0.6,0.8,0.9
	c0.3,0.3,0.6,0.5,0.9,0.7c0.3,0.2,0.7,0.3,1.1,0.4c0.4,0.1,1,0.2,1.6,0.2h8.5l-28.8-34.3c-0.8-0.9-1.5-1.7-2.2-2.3
	c-0.7-0.6-1.5-1.1-2.5-1.4c0.7-0.3,1.4-0.8,2-1.3c0.6-0.5,1.3-1.2,2-2l27.6-31.2h-8.3c-1.1,0-2,0.2-2.7,0.5c-0.7,0.4-1.4,1-2.1,1.8
	l-24.1,27.3c-0.7,0.8-1.4,1.3-2.1,1.6c-0.8,0.3-1.8,0.5-3.1,0.5h-3.7V550.1z M918,622.4h9v-51.1h-9V622.4z M928.5,552.7
	c-0.4-0.8-0.8-1.5-1.4-2.1s-1.3-1.1-2-1.4c-0.8-0.3-1.6-0.5-2.5-0.5c-0.9,0-1.7,0.2-2.4,0.5c-0.8,0.3-1.4,0.8-2,1.4
	c-0.6,0.6-1,1.3-1.4,2.1c-0.3,0.8-0.5,1.6-0.5,2.5s0.2,1.7,0.5,2.4c0.3,0.8,0.8,1.4,1.4,2c0.6,0.6,1.3,1,2,1.4
	c0.8,0.3,1.6,0.5,2.4,0.5c0.9,0,1.7-0.2,2.5-0.5c0.8-0.3,1.5-0.8,2-1.4c0.6-0.6,1.1-1.3,1.4-2c0.4-0.8,0.5-1.6,0.5-2.4
	S928.9,553.5,928.5,552.7 M951.9,622.4v-32.6c1.4-3.5,3.2-6.1,5.3-7.9c2.1-1.8,4.7-2.7,7.8-2.7c1.7,0,3.1,0.2,4.1,0.5
	c1,0.3,1.7,0.5,2.2,0.5c0.8,0,1.3-0.4,1.6-1.3l1.2-6.7c-1-0.6-2-1-3.2-1.3c-1.1-0.3-2.4-0.5-3.8-0.5c-3.5,0-6.5,1-9.1,3
	c-2.6,2-4.7,4.8-6.5,8.4l-0.6-8c-0.1-0.9-0.4-1.5-0.8-1.9c-0.4-0.4-1-0.6-2-0.6h-5.2v51.1H951.9z M1020.8,577.1
	c-2.1-2.1-4.6-3.8-7.3-4.9c-2.8-1.2-5.9-1.7-9.5-1.7c-3.9,0-7.3,0.7-10.3,2c-3,1.3-5.5,3.1-7.5,5.5c-2,2.3-3.6,5.1-4.6,8.4
	c-1.1,3.2-1.6,6.7-1.6,10.6c0,4.2,0.6,7.9,1.7,11.2c1.2,3.3,2.8,6,4.8,8.3c2,2.2,4.4,3.9,7.1,5.1c2.7,1.2,5.7,1.8,8.9,1.8
	c3.7,0,7.2-0.6,10.6-1.9c3.3-1.3,6.1-3.3,8.3-6l-2.5-3.3c-0.4-0.6-0.9-0.9-1.7-0.9c-0.6,0-1.2,0.3-1.8,0.8c-0.6,0.5-1.4,1.1-2.3,1.7
	c-0.9,0.6-2.1,1.2-3.5,1.7c-1.4,0.5-3.2,0.8-5.4,0.8c-2.3,0-4.4-0.4-6.2-1.3c-1.8-0.9-3.4-2.1-4.7-3.7c-1.3-1.6-2.3-3.6-3-6.1
	c-0.7-2.4-1.1-5.2-1.1-8.3c0-3,0.3-5.6,1-8c0.7-2.4,1.6-4.4,2.9-6.1c1.3-1.7,2.9-3,4.8-3.9s4.1-1.3,6.6-1.3c1.9,0,3.5,0.2,4.8,0.6
	c1.3,0.4,2.4,0.9,3.3,1.4c0.9,0.5,1.7,1,2.2,1.4c0.6,0.4,1.1,0.6,1.6,0.6c0.5,0,0.9-0.1,1.2-0.3c0.3-0.2,0.5-0.5,0.8-0.9
	L1020.8,577.1z M1039.7,622.4v-37.7c2-2.2,4.1-3.9,6.4-5.2c2.3-1.3,4.8-1.9,7.5-1.9c3.6,0,6.3,1.1,8.1,3.2c1.8,2.1,2.7,5.1,2.7,9
	v32.6h9v-32.6c0-2.9-0.4-5.5-1.1-7.9s-1.8-4.4-3.3-6.1c-1.4-1.7-3.2-3-5.3-3.9c-2.1-0.9-4.6-1.4-7.4-1.4c-3.5,0-6.5,0.7-9.2,2.1
	c-2.7,1.4-5.1,3.3-7.3,5.6v-30.1h-9v74.4H1039.7z M1095.9,639.8v-22.6c1.7,1.9,3.7,3.4,5.9,4.4c2.2,1,4.9,1.6,8.1,1.6
	c3.4,0,6.5-0.7,9.3-2c2.7-1.4,5.1-3.2,6.9-5.6c1.9-2.4,3.3-5.2,4.3-8.4c1-3.2,1.5-6.8,1.5-10.5c0-4.2-0.5-8-1.4-11.3s-2.2-6-3.9-8.2
	c-1.7-2.2-3.7-3.9-6.1-5c-2.4-1.1-5-1.7-8-1.7c-3.7,0-6.9,0.8-9.7,2.4c-2.8,1.6-5.3,3.7-7.5,6.4l-0.8-6.1c-0.3-1.2-1.1-1.9-2.4-1.9
	h-5.4v68.5H1095.9z M1115.1,578.7c1.6,0.7,3,1.8,4.1,3.4c1.1,1.5,2,3.5,2.6,5.9c0.6,2.4,0.9,5.2,0.9,8.6c0,6.3-1.3,11.1-3.8,14.5
	c-2.6,3.4-6.2,5.1-11,5.1c-2.4,0-4.6-0.5-6.6-1.4c-2-0.9-3.8-2.5-5.4-4.7v-24.7c1.9-2.5,3.9-4.4,6.1-5.7c2.2-1.3,4.8-2,7.7-2
	C1111.7,577.6,1113.5,578,1115.1,578.7 M1143.6,622.4h9v-74.4h-9V622.4z M1206,589.7c0-2.9-0.4-5.5-1.2-7.9
	c-0.8-2.4-1.9-4.4-3.4-6.1c-1.5-1.7-3.4-3-5.6-3.9c-2.2-0.9-4.8-1.4-7.6-1.4c-4,0-7.6,0.7-10.9,2c-3.3,1.3-6.3,3.4-9.1,6.1l1.6,2.9
	c0.3,0.5,0.6,0.9,1.1,1.2c0.5,0.3,1,0.5,1.6,0.5c0.8,0,1.6-0.3,2.3-0.8c0.8-0.6,1.7-1.2,2.8-1.9c1.1-0.7,2.4-1.3,3.9-1.9
	s3.3-0.8,5.5-0.8c3.3,0,5.8,1,7.6,3.1c1.7,2.1,2.5,5.1,2.5,9.1v4c-5.8,0-10.7,0.5-14.7,1.4s-7.2,2.1-9.7,3.6c-2.5,1.5-4.3,3.1-5.4,5
	c-1.1,1.9-1.7,3.8-1.7,5.8c0,2.3,0.4,4.3,1.1,6.1c0.8,1.7,1.8,3.1,3.1,4.2s2.8,2,4.5,2.5c1.7,0.6,3.6,0.8,5.6,0.8
	c2,0,3.7-0.2,5.3-0.5c1.6-0.3,3.1-0.8,4.5-1.5c1.4-0.7,2.8-1.5,4-2.4c1.3-1,2.6-2,3.9-3.3l1,4.7c0.2,0.9,0.5,1.4,1.1,1.7
	c0.5,0.3,1.2,0.4,2.1,0.4h4V589.7z M1179.4,616.5c-1-0.3-1.9-0.7-2.6-1.4c-0.7-0.6-1.3-1.4-1.8-2.4c-0.4-1-0.7-2.2-0.7-3.5
	c0-1.4,0.4-2.7,1.2-3.9c0.8-1.1,2.1-2.2,4-3c1.8-0.8,4.2-1.5,7.1-2.1c2.9-0.5,6.4-0.8,10.6-0.8v10.6c-1,1.1-2,2-3.1,2.9
	c-1.1,0.8-2.2,1.6-3.3,2.1s-2.4,1-3.7,1.4c-1.3,0.3-2.8,0.5-4.3,0.5C1181.5,616.9,1180.4,616.8,1179.4,616.5 M1241.9,622
	c2.2-0.8,4.1-2,5.6-3.4l-2.6-4.3c-0.4-0.6-0.8-0.9-1.3-0.9c-0.3,0-0.6,0.1-0.9,0.4c-0.3,0.3-0.8,0.5-1.3,0.8
	c-0.5,0.3-1.1,0.6-1.8,0.8c-0.7,0.3-1.5,0.4-2.4,0.4c-1.7,0-3-0.5-4-1.6c-1-1-1.6-2.6-1.6-4.8v-30.7h14.6v-6.5h-14.6v-17.6h-4.5
	c-0.6,0-1,0.2-1.4,0.5c-0.4,0.3-0.6,0.7-0.7,1.2l-2.1,15.8l-8.4,1.1v3.6c0,0.7,0.2,1.2,0.6,1.5c0.4,0.3,0.8,0.5,1.4,0.5h6.2v31.3
	c0,4.2,1.1,7.5,3.3,9.7c2.2,2.3,5.3,3.4,9.3,3.4C1237.5,623.2,1239.7,622.8,1241.9,622 M1293,571.3h-38v7.1h27.5l-27.8,37.1
	c-0.4,0.5-0.7,1.1-0.9,1.7c-0.2,0.6-0.3,1.1-0.3,1.5v3.7h38.5v-7h-27.9l27.7-36.9c0.4-0.5,0.7-1,0.9-1.6c0.2-0.6,0.3-1.2,0.3-1.8
	V571.3z"/>
<path class="st1" d="M219.1,265.3h-23L114.3,21.1H222l25.7,62.4c0.7-0.5,1.3-0.9,2-1.4c4.6-3,9.3-5.7,14.2-8L236.8,8.2
	c-0.5-1.2-1.3-2.2-2.4-3l-2.5-1.7c-1.1-0.7-2.4-1.1-3.7-1.1H100.8c-0.3,0-0.6,0-0.9,0.1h-1.7c-2.8,0-5.3,1.8-6.2,4.5L3.5,271
	c-0.2,0.7-0.3,1.4-0.3,2.1l0,82.6c0,3.6,2.9,6.6,6.6,6.6h5.3c3.6,0,6.6-2.9,6.6-6.6v-80.2l79.2-236.3L180,275.4v80
	c0,3.6,2.9,6.6,6.6,6.6h5.4c3.6,0,6.6-2.9,6.6-6.6v-71.6h38.6c-3.5-3.5-7-7-10.5-10.5C224.1,270.7,221.4,268.1,219.1,265.3"/>
<path class="st0" d="M420.3,121.6c-25.8-40.8-64.1-60.1-112.6-58c-15.5,0.7-30.1,4.2-43.8,10.6c-4.9,2.3-9.6,4.9-14.2,8
	c-0.7,0.4-1.3,0.9-2,1.4c-37.5,25.6-56.8,61.2-56.3,107.2c0.4,27.1,9.7,51.3,26,72.8c0.5,0.6,1,1.2,1.6,1.8c2.4,2.8,5,5.5,7.6,8.1
	c3.5,3.5,7,7,10.5,10.5c24.7,24.7,49.3,49.4,74,74c1.3,1.3,2.7,2.5,4.6,4.1l5.1-5.1c27-27,54.1-53.9,80.9-81
	C444,233.2,451.5,170.7,420.3,121.6"/>
<path class="st2" d="M269.6,231.8v-48.3h27.6c1.6,0,2.9-1.3,2.9-2.9v-56.4c0-1.6-1.3-2.9-2.9-2.9h-28c-0.9-3.3-3.6-6-7-6.6
	c-2.6-0.4-5.2,0.3-7.1,2c-2,1.7-3.1,4.1-3.1,6.7v175.3c1.9,1.9,3.9,3.9,5.8,5.8V123.4c0-0.9,0.4-1.7,1-2.3c0.5-0.5,1.2-0.7,1.9-0.7
	c0.2,0,0.3,0,0.5,0c1.4,0.2,2.4,1.7,2.4,3.2v108.1c0,7.6,1.1,15.2,3.3,22.5c2,6.8,3,13.7,3,20.8v41.7c1.9,1.9,3.9,3.9,5.8,5.8V275
	c0-7.6-1.1-15.2-3.3-22.5C270.7,245.8,269.6,238.8,269.6,231.8 M294.4,132.8h-24.7v-5.8h24.7V132.8z M294.4,143.9h-24.7v-5.3h24.7
	V143.9z M294.4,155h-24.7v-5.3h24.7V155z M294.4,166.1h-24.7v-5.3h24.7V166.1z M269.6,171.9h24.7v5.7h-24.7V171.9z M385.4,292.3
	l-1.3-94.9c0,0,0-0.1,0-0.1c0-0.3-0.1-0.6-0.2-0.9c0-0.1-0.1-0.2-0.2-0.3c-0.1-0.1-0.1-0.3-0.2-0.4l-13.8-18.4c0,0,0,0,0,0
	c0.5-0.5,0.7-1.2,0.7-1.9c0-0.1,0-0.3,0-0.4l-4.5-34.1c-0.2-1.4-1.4-2.5-2.9-2.5l-27,0c-1.5,0-2.7,1.1-2.9,2.5l-4.5,34.1
	c-0.1,0.8,0.1,1.7,0.7,2.3c0,0,0,0,0,0l-13.8,18.4c-0.1,0.1-0.2,0.3-0.3,0.5c0,0.1-0.1,0.1-0.1,0.2c-0.1,0.3-0.2,0.6-0.2,1
	c0,0,0,0.1,0,0.1l-2.3,161.7c1,0.9,2,1.7,3.2,2.8l2.6-2.6l2.2-159h57.7l1.4,97.7C381.6,296.1,383.5,294.2,385.4,292.3 M364.2,172.5
	h-29.4l3.8-28.2h21.9L364.2,172.5z M375.4,194.5h-51.8l12.2-16.3h27.3L375.4,194.5z"/>
</svg>
