<svg id="Ebene_1" data-name="Ebene 1" xmlns="http://www.w3.org/2000/svg" viewBox="0 0 230.92 25.48"><defs><style>.cls-1{fill:#29211a;}.cls-2{fill:#a63232;fill-rule:evenodd;}</style></defs><polyline class="cls-1" points="60.72 23 140.45 23.18 140.46 22.18 60.72 22 60.72 23"/><path class="cls-1" d="M143.15,34.29H145c1.45,0,2.45.47,2.45,1.76a1.62,1.62,0,0,1-1.44,1.66v0a1.63,1.63,0,0,1,1.62,1.68c0,1.5-1.24,1.86-2.66,1.86h-1.86v-7m1,3h.55c1,0,1.79-.09,1.79-1.12,0-.83-.71-1-1.29-1h-1Zm0,3.18h.75c.9,0,1.71-.19,1.71-1.13s-1-1.23-1.81-1.23h-.65Z" transform="translate(0 -29.01)"/><path class="cls-1" d="M149.47,36.53a3.25,3.25,0,0,1,1.68-.48c1.46,0,2,.72,2,2.11v2.11a8.06,8.06,0,0,0,0,1h-.88v-.66h0a1.89,1.89,0,0,1-1.58.78c-1.1,0-1.87-.48-1.87-1.59,0-1.28,1.4-1.68,2.37-1.68.37,0,.63,0,1,0,0-.88-.32-1.33-1.26-1.33a2.4,2.4,0,0,0-1.48.52l-.05-.8m2.79,2.31-.6,0c-.51,0-1.77.08-1.77,1a.9.9,0,0,0,1,.83,1.29,1.29,0,0,0,1.42-1.34Z" transform="translate(0 -29.01)"/><path class="cls-1" d="M159.3,41.27h-.91v-.81h0a1.83,1.83,0,0,1-1.67.93c-1.32,0-1.91-.82-1.91-2.19v-3h.94v2.64c0,1.19.26,1.77,1.08,1.82,1.07,0,1.55-.86,1.55-2.1V36.17h.94v5.1" transform="translate(0 -29.01)"/><path class="cls-1" d="M165.41,41.05c0,1.55-.8,2.44-2.63,2.44a5.16,5.16,0,0,1-1.83-.35l.1-.87a3.88,3.88,0,0,0,1.84.46A1.54,1.54,0,0,0,164.47,41v-.5h0a2.13,2.13,0,0,1-1.71.79,2.24,2.24,0,0,1-2.18-2.51,2.45,2.45,0,0,1,2.28-2.71,1.68,1.68,0,0,1,1.68.88h0v-.76h.87v4.88m-.94-2.27c0-1.06-.49-2-1.49-2s-1.42,1-1.42,1.9.54,1.8,1.42,1.8A1.59,1.59,0,0,0,164.47,38.78Z" transform="translate(0 -29.01)"/><path class="cls-1" d="M170.92,41.06a3.9,3.9,0,0,1-1.61.33,2.44,2.44,0,0,1-2.64-2.76,2.37,2.37,0,0,1,2.39-2.58c1.7,0,2.25,1.24,2.25,2.88h-3.64a1.67,1.67,0,0,0,1.68,1.7,3,3,0,0,0,1.57-.51v.94m-.61-2.83A1.29,1.29,0,0,0,169,36.81a1.41,1.41,0,0,0-1.37,1.42Z" transform="translate(0 -29.01)"/><path class="cls-1" d="M172.57,36.17h.91V37h0a1.83,1.83,0,0,1,1.67-.93c1.32,0,1.91.82,1.91,2.19v3h-.94V38.63c0-1.19-.26-1.77-1.08-1.82-1.07,0-1.55.86-1.55,2.1v2.36h-.94v-5.1" transform="translate(0 -29.01)"/><path class="cls-1" d="M180.94,36.05a2.52,2.52,0,0,1,2.59,2.67,2.6,2.6,0,1,1-5.19,0,2.52,2.52,0,0,1,2.6-2.67m0,4.58a1.71,1.71,0,0,0,1.59-1.91,1.62,1.62,0,1,0-3.19,0A1.71,1.71,0,0,0,180.94,40.63Z" transform="translate(0 -29.01)"/><path class="cls-1" d="M184.41,40.27a2.51,2.51,0,0,0,1.17.36c.43,0,1-.18,1-.73,0-.93-2.21-.85-2.21-2.28,0-1.06.79-1.57,1.8-1.57a3.93,3.93,0,0,1,1.17.2l-.08.82a2.75,2.75,0,0,0-1-.26c-.48,0-.9.2-.9.62,0,1,2.21.74,2.21,2.37a1.6,1.6,0,0,1-1.78,1.59,2.93,2.93,0,0,1-1.4-.28l0-.84" transform="translate(0 -29.01)"/><path class="cls-1" d="M188.3,40.27a2.51,2.51,0,0,0,1.17.36c.43,0,1-.18,1-.73,0-.93-2.21-.85-2.21-2.28,0-1.06.79-1.57,1.8-1.57a3.93,3.93,0,0,1,1.17.2l-.08.82a2.75,2.75,0,0,0-1-.26c-.48,0-.9.2-.9.62,0,1,2.21.74,2.21,2.37a1.6,1.6,0,0,1-1.78,1.59,2.93,2.93,0,0,1-1.4-.28l.05-.84" transform="translate(0 -29.01)"/><path class="cls-1" d="M196.48,41.06a3.9,3.9,0,0,1-1.61.33,2.44,2.44,0,0,1-2.64-2.76,2.37,2.37,0,0,1,2.39-2.58c1.7,0,2.25,1.24,2.25,2.88h-3.64a1.67,1.67,0,0,0,1.68,1.7,3,3,0,0,0,1.57-.51v.94m-.61-2.83a1.29,1.29,0,0,0-1.27-1.42,1.41,1.41,0,0,0-1.37,1.42Z" transform="translate(0 -29.01)"/><path class="cls-1" d="M198.13,36.17H199V37h0a1.83,1.83,0,0,1,1.67-.93c1.32,0,1.91.82,1.91,2.19v3h-.94V38.63c0-1.19-.26-1.77-1.08-1.82-1.07,0-1.55.86-1.55,2.1v2.36h-.94v-5.1" transform="translate(0 -29.01)"/><path class="cls-1" d="M203.86,40.27a2.51,2.51,0,0,0,1.17.36c.43,0,1-.18,1-.73,0-.93-2.21-.85-2.21-2.28,0-1.06.79-1.57,1.8-1.57a3.93,3.93,0,0,1,1.17.2l-.08.82a2.75,2.75,0,0,0-1-.26c-.48,0-.9.2-.9.62,0,1,2.21.74,2.21,2.37a1.6,1.6,0,0,1-1.78,1.59,2.93,2.93,0,0,1-1.4-.28l.05-.84" transform="translate(0 -29.01)"/><path class="cls-1" d="M211.37,37a2.72,2.72,0,0,0-1-.22,1.75,1.75,0,0,0-1.64,1.91,1.73,1.73,0,0,0,1.7,1.91,2,2,0,0,0,1-.29l.07.84a2.87,2.87,0,0,1-1.18.21,2.58,2.58,0,0,1-2.6-2.67,2.52,2.52,0,0,1,2.6-2.67,3.52,3.52,0,0,1,1.14.2l-.08.78" transform="translate(0 -29.01)"/><path class="cls-1" d="M212.57,33.77h.94V36.9h0a1.87,1.87,0,0,1,1.64-.85c1.32,0,1.91.82,1.91,2.19v3h-.94V38.63c0-1.19-.26-1.77-1.08-1.82-1.07,0-1.55.86-1.55,2.1v2.36h-.94v-7.5" transform="translate(0 -29.01)"/><path class="cls-1" d="M218.92,36.53a3.25,3.25,0,0,1,1.68-.48c1.46,0,2.05.72,2.05,2.11v2.11a8.06,8.06,0,0,0,0,1h-.88v-.66h0a1.89,1.89,0,0,1-1.58.78c-1.1,0-1.87-.48-1.87-1.59,0-1.28,1.4-1.68,2.37-1.68.37,0,.63,0,1,0,0-.88-.32-1.33-1.26-1.33a2.4,2.4,0,0,0-1.48.52l-.05-.8m2.79,2.31-.6,0c-.51,0-1.77.08-1.77,1a.9.9,0,0,0,.95.83,1.29,1.29,0,0,0,1.42-1.34Z" transform="translate(0 -29.01)"/><path class="cls-1" d="M224.85,36.93h-1.2v-.76h1.2V35.7c0-1.24.32-2.05,1.71-2.05a3.85,3.85,0,0,1,.63.06l0,.76a1.49,1.49,0,0,0-.45-.06c-.81,0-.91.52-.91,1.21v.55h1.35v.76h-1.35v4.34h-.94V36.93" transform="translate(0 -29.01)"/><path class="cls-1" d="M230.84,36.93h-1.35v2.79a.81.81,0,0,0,.79.91,1.16,1.16,0,0,0,.64-.18v.8a3,3,0,0,1-.8.14c-1,0-1.57-.46-1.57-1.48v-3H227.4v-.76h1.15V35l.94-.3v1.48h1.35v.76" transform="translate(0 -29.01)"/><polyline class="cls-1" points="143.26 16.28 144.26 16.28 144.26 19.35 147.24 16.28 148.57 16.28 145.29 19.58 148.83 23.26 147.37 23.26 144.26 19.84 144.26 23.26 143.26 23.26 143.26 16.28"/><path class="cls-1" d="M149.79,47.17h.88V48h0a1.55,1.55,0,0,1,1.33-.91,2.65,2.65,0,0,1,.62.07V48a1.39,1.39,0,0,0-.52-.09c-.84,0-1.39.8-1.39,2.08v2.32h-.94v-5.1" transform="translate(0 -29.01)"/><path class="cls-1" d="M154.8,46h-1.06V45h1.06V46m-1,1.14h.94v5.1h-.94Z" transform="translate(0 -29.01)"/><path class="cls-1" d="M160.37,52.06a3.9,3.9,0,0,1-1.61.33,2.44,2.44,0,0,1-2.64-2.76,2.37,2.37,0,0,1,2.39-2.58c1.7,0,2.25,1.24,2.25,2.88h-3.64a1.67,1.67,0,0,0,1.68,1.7,3,3,0,0,0,1.57-.51v.94m-.61-2.83a1.29,1.29,0,0,0-1.27-1.42,1.41,1.41,0,0,0-1.37,1.42Z" transform="translate(0 -29.01)"/><path class="cls-1" d="M166.53,52.05c0,1.55-.8,2.44-2.63,2.44a5.16,5.16,0,0,1-1.83-.35l.1-.87a3.88,3.88,0,0,0,1.84.46A1.54,1.54,0,0,0,165.59,52v-.5h0a2.13,2.13,0,0,1-1.71.79,2.24,2.24,0,0,1-2.18-2.51A2.45,2.45,0,0,1,164,47.05a1.68,1.68,0,0,1,1.68.88h0v-.76h.87v4.88m-.94-2.27c0-1.06-.49-2-1.49-2s-1.42,1-1.42,1.9.54,1.8,1.42,1.8A1.59,1.59,0,0,0,165.59,49.78Z" transform="translate(0 -29.01)"/><path class="cls-1" d="M172,52.06a3.9,3.9,0,0,1-1.61.33,2.44,2.44,0,0,1-2.64-2.76,2.37,2.37,0,0,1,2.39-2.58c1.7,0,2.25,1.24,2.25,2.88h-3.64a1.67,1.67,0,0,0,1.68,1.7,3,3,0,0,0,1.57-.51v.94m-.61-2.83a1.29,1.29,0,0,0-1.27-1.42,1.41,1.41,0,0,0-1.37,1.42Z" transform="translate(0 -29.01)"/><path class="cls-1" d="M173.69,47.17h.88V48h0a1.55,1.55,0,0,1,1.33-.91,2.65,2.65,0,0,1,.62.07V48a1.39,1.39,0,0,0-.52-.09c-.84,0-1.39.8-1.39,2.08v2.32h-.94v-5.1" transform="translate(0 -29.01)"/><path class="cls-1" d="M177.2,51.27a2.51,2.51,0,0,0,1.17.36c.43,0,1-.18,1-.73,0-.93-2.21-.85-2.21-2.28,0-1.06.79-1.57,1.8-1.57a3.93,3.93,0,0,1,1.17.2l-.08.82a2.75,2.75,0,0,0-1-.26c-.48,0-.9.2-.9.62,0,1,2.21.74,2.21,2.37a1.6,1.6,0,0,1-1.78,1.59,2.93,2.93,0,0,1-1.4-.28l0-.84" transform="translate(0 -29.01)"/><path class="cls-1" d="M182.59,46h-1.06V45h1.06V46m-1,1.14h.94v5.1h-.94Z" transform="translate(0 -29.01)"/><path class="cls-1" d="M188.16,52.06a3.9,3.9,0,0,1-1.61.33,2.44,2.44,0,0,1-2.64-2.76,2.37,2.37,0,0,1,2.39-2.58c1.7,0,2.25,1.24,2.25,2.88h-3.64a1.67,1.67,0,0,0,1.68,1.7,3,3,0,0,0,1.57-.51v.94m-.61-2.83a1.29,1.29,0,0,0-1.27-1.42,1.41,1.41,0,0,0-1.37,1.42Z" transform="translate(0 -29.01)"/><path class="cls-1" d="M193.42,51.55h0a2,2,0,0,1-1.74.84c-1.54,0-2.19-1.37-2.19-2.76s.72-2.58,2.2-2.58a1.82,1.82,0,0,1,1.69.82h0v-3.1h.94v7.5h-.9v-.72m-1.54.08c1.06,0,1.5-1.05,1.5-1.9s-.49-1.92-1.51-1.92-1.42,1-1.4,1.89S190.87,51.63,191.88,51.63Z" transform="translate(0 -29.01)"/><rect class="cls-1" x="196.04" y="15.76" width="0.94" height="7.5"/><path class="cls-1" d="M203.21,52.27h-.91v-.81h0a1.83,1.83,0,0,1-1.67.93c-1.32,0-1.91-.82-1.91-2.19v-3h.94v2.64c0,1.19.26,1.77,1.08,1.82,1.07,0,1.55-.86,1.55-2.1V47.17h.94v5.1" transform="translate(0 -29.01)"/><path class="cls-1" d="M204.81,47.17h.91V48h0a1.83,1.83,0,0,1,1.67-.93c1.32,0,1.91.82,1.91,2.19v3h-.94V49.63c0-1.19-.26-1.77-1.08-1.82-1.07,0-1.55.86-1.55,2.1v2.36h-.94v-5.1" transform="translate(0 -29.01)"/><path class="cls-1" d="M215.43,52.05c0,1.55-.8,2.44-2.63,2.44a5.16,5.16,0,0,1-1.83-.35l.1-.87a3.88,3.88,0,0,0,1.84.46A1.54,1.54,0,0,0,214.49,52v-.5h0a2.13,2.13,0,0,1-1.71.79,2.24,2.24,0,0,1-2.18-2.51,2.45,2.45,0,0,1,2.28-2.71,1.68,1.68,0,0,1,1.68.88h0v-.76h.87v4.88m-.94-2.27c0-1.06-.49-2-1.49-2s-1.42,1-1.42,1.9.54,1.8,1.42,1.8A1.59,1.59,0,0,0,214.49,49.78Z" transform="translate(0 -29.01)"/><path class="cls-1" d="M223.72,52.06a3.9,3.9,0,0,1-1.61.33,2.44,2.44,0,0,1-2.64-2.76,2.37,2.37,0,0,1,2.39-2.58c1.7,0,2.25,1.24,2.25,2.88h-3.64a1.67,1.67,0,0,0,1.68,1.7,3,3,0,0,0,1.57-.51v.94m-.61-2.83a1.29,1.29,0,0,0-1.27-1.42,1.41,1.41,0,0,0-1.37,1.42Z" transform="translate(0 -29.01)"/><path class="cls-1" d="M230.76,46.53a3.22,3.22,0,0,0-1.92-.48,2.73,2.73,0,0,0-.05,5.46,4,4,0,0,0,1.12-.12V49.27h-1.47v-.82h2.47v3.63a6.36,6.36,0,0,1-2.13.31,3.44,3.44,0,0,1-3.68-3.64,3.48,3.48,0,0,1,3.69-3.58,5.26,5.26,0,0,1,2.05.35l-.08,1" transform="translate(0 -29.01)"/><polygon class="cls-1" points="39.08 0.59 38.28 0 22.04 22 0 22 0 23 22.55 23 22.55 23 22.55 23 39.08 0.59"/><polyline class="cls-2" points="64.95 23.02 54.79 23.02 38.29 0 48.04 0 64.95 23.02"/></svg>