<?xml version="1.0" standalone="no"?>
<!DOCTYPE svg PUBLIC "-//W3C//DTD SVG 20010904//EN"
 "http://www.w3.org/TR/2001/REC-SVG-20010904/DTD/svg10.dtd">
<svg version="1.0" xmlns="http://www.w3.org/2000/svg"
 width="700.000000pt" height="700.000000pt" viewBox="0 0 700.000000 700.000000"
 preserveAspectRatio="xMidYMid meet">
<metadata>
Created by potrace 1.11, written by Peter Selinger 2001-2013
</metadata>
<g transform="translate(0.000000,700.000000) scale(0.100000,-0.100000)"
fill="#000000" stroke="none">
<path d="M1331 6989 c-359 -42 -686 -260 -874 -584 -52 -91 -103 -229 -126
-342 -21 -101 -21 -117 -21 -2563 0 -2446 0 -2462 21 -2563 48 -238 160 -439
341 -613 158 -151 328 -242 566 -301 62 -16 277 -17 2765 -20 l2697 -3 -3
2987 c-3 3276 2 2999 -58 3198 -52 171 -161 345 -301 480 -195 189 -417 295
-683 325 -111 12 -4215 11 -4324 -1z m2377 -730 c725 -78 1340 -574 1571
-1265 190 -571 89 -1215 -266 -1691 -37 -50 -112 -140 -166 -199 -242 -270
-371 -522 -441 -863 -36 -172 -82 -242 -195 -295 -45 -21 -59 -21 -687 -24
-637 -3 -642 -2 -700 19 -65 25 -137 85 -165 141 -11 21 -33 97 -49 170 -42
188 -72 273 -151 433 -79 160 -153 268 -292 423 -125 140 -175 205 -244 317
-290 467 -357 1044 -182 1570 276 830 1099 1359 1967 1264z m413 -4490 c87
-26 153 -114 153 -204 0 -91 -68 -180 -158 -204 -29 -9 -217 -11 -658 -9
l-616 3 -44 30 c-50 35 -98 120 -98 173 0 86 48 164 122 201 42 21 52 21 652
21 427 0 620 -3 647 -11z m-190 -596 c73 -38 111 -93 117 -171 5 -68 -15 -117
-70 -169 -63 -61 -81 -63 -492 -63 -233 0 -385 4 -410 11 -92 25 -166 139
-151 234 9 61 60 134 114 162 44 23 46 23 441 23 l396 0 55 -27z"/>
<path d="M3237 5929 c-615 -108 -1100 -580 -1239 -1206 -19 -84 -22 -130 -22
-313 0 -201 1 -223 28 -334 142 -603 587 -1042 1196 -1179 81 -18 126 -21 310
-21 184 0 229 3 310 21 638 144 1104 627 1212 1258 17 102 19 148 15 305 -8
265 -48 424 -164 652 -76 150 -160 265 -283 388 -228 228 -513 377 -825 430
-155 27 -385 26 -538 -1z m-178 -745 c154 -83 175 -287 43 -406 -158 -143
-415 -27 -414 186 0 71 17 118 62 170 79 89 201 109 309 50z m1097 21 c64 -19
126 -72 154 -132 18 -38 21 -60 18 -118 -4 -94 -40 -156 -116 -201 -109 -66
-219 -51 -308 40 -83 86 -98 206 -37 305 62 99 174 140 289 106z m-1424 -1124
c13 -11 46 -56 71 -100 208 -358 648 -499 1016 -325 149 70 273 181 342 305
18 35 51 81 72 102 35 38 39 39 87 35 59 -6 95 -34 109 -85 12 -41 2 -77 -40
-151 -134 -237 -348 -405 -624 -488 -84 -26 -103 -28 -275 -28 -174 0 -191 2
-275 27 -276 85 -487 249 -621 484 -24 42 -47 92 -50 109 -8 41 20 100 55 119
38 21 104 19 133 -4z"/>
</g>
</svg>
