<?xml version="1.0" encoding="utf-8"?>
<!-- Generator: Adobe Illustrator 24.3.0, SVG Export Plug-In . SVG Version: 6.00 Build 0)  -->
<svg version="1.1" id="Ebene_1" xmlns="http://www.w3.org/2000/svg" xmlns:xlink="http://www.w3.org/1999/xlink" x="0px" y="0px"
	 viewBox="0 0 1610.6 1328.2" style="enable-background:new 0 0 1610.6 1328.2;" xml:space="preserve">
<style type="text/css">
	.st0{fill:#002948;}
	.st1{fill:#FFFFFF;}
	.st2{fill:#87C846;}
</style>
<path class="st0" d="M797,967.6h-84.3l-299.2-894h394.4L902,302.1c2.4-1.7,4.7-3.4,7.2-5c16.8-11.1,34.2-20.8,52-29.1L862,26.7
	c-1.8-4.4-4.9-8.2-8.9-10.8L844,9.7c-3.9-2.6-8.6-4.1-13.4-4.1H364.2c-1.1,0-2.2,0.1-3.3,0.2h-6.2c-10.3,0-19.5,6.6-22.8,16.4
	L8,988.5c-0.8,2.5-1.2,5-1.2,7.6l-0.1,302.3c0,13.3,10.8,24.1,24.1,24.1h19.4c13.3,0,24.1-10.8,24.1-24.1v-293.6L364.1,140
	l290,864.9v292.9c0,13.3,10.8,24.1,24.1,24.1h19.8c13.3,0,24.1-10.8,24.1-24.1v-262.2h141.4c-12.8-12.8-25.6-25.6-38.4-38.4
	C815.4,987.6,805.7,977.9,797,967.6"/>
<path class="st1" d="M1533.9,441.5c-94.6-149.5-234.7-219.9-412.4-212.3c-56.6,2.4-110.3,15.2-160.3,38.7c-17.8,8.4-35.2,18-52,29.1
	c-2.5,1.6-4.8,3.4-7.2,5C764.6,395.7,693.9,526.1,696,694.5c1.3,99.3,35.6,187.8,95.3,266.6c1.7,2.3,3.8,4.3,5.7,6.5
	c8.7,10.3,18.4,20,28,29.6c12.8,12.8,25.6,25.6,38.4,38.4c90.3,90.4,180.6,180.7,270.9,271c4.8,4.8,10.1,9,16.9,15.1l18.7-18.7
	c98.8-98.8,198.1-197.2,296.3-296.5C1620.6,850.3,1647.8,621.5,1533.9,441.5"/>
<path class="st2" d="M982.2,845.1V668.2h101.1c5.9,0,10.7-4.8,10.7-10.7V451.1c0-5.9-4.8-10.7-10.7-10.7H980.9
	c-3.3-12.3-13.1-22-25.5-24c-9.5-1.5-19,1.1-26.1,7.2c-7.2,6.1-11.3,15.1-11.3,24.5v641.9c7.1,7.1,14.2,14.2,21.3,21.3V448.2
	c0-3.2,1.4-6.2,3.8-8.3c2-1.7,4.4-2.6,7-2.6c0.6,0,1.3,0,1.9,0.1c5,0.8,9,6,9,11.9v395.7c0,27.9,4,55.5,12,82.2
	c7.4,24.7,11.1,50.3,11.1,76.1v152.8c7.1,7.1,14.2,14.2,21.3,21.3v-174.1c0-27.9-4-55.5-12-82.2
	C985.9,896.5,982.2,870.9,982.2,845.1 M1072.7,482.9h-90.5v-21.1h90.5V482.9z M1072.7,523.4h-90.5v-19.3h90.5V523.4z M1072.7,564
	h-90.5v-19.3h90.5V564z M1072.7,604.6h-90.5v-19.3h90.5V604.6z M982.2,625.9h90.5v21h-90.5V625.9z M1406.1,1066.7l-4.9-347.4
	c0-0.1-0.1-0.3-0.1-0.4c0-1.1-0.3-2.2-0.7-3.3c-0.2-0.4-0.4-0.8-0.6-1.2c-0.2-0.4-0.4-0.9-0.7-1.4l-50.6-67.4c0,0,0.1,0,0.1-0.1
	c1.7-2,2.6-4.5,2.6-7c0-0.5,0-0.9-0.1-1.4l-16.6-124.7c-0.7-5.3-5.2-9.2-10.5-9.2l-98.9,0c-5.3,0-9.8,3.9-10.5,9.2l-16.6,124.7
	c-0.4,3.1,0.5,6.1,2.5,8.4c0,0,0.1,0,0.1,0.1l-50.6,67.4c-0.4,0.5-0.6,1.1-0.9,1.7c-0.1,0.2-0.3,0.4-0.4,0.7
	c-0.5,1.2-0.7,2.4-0.8,3.6c0,0.1-0.1,0.2-0.1,0.3l-8.3,592.1c3.5,3.1,7.2,6.3,11.8,10.4l9.5-9.5l8.2-582.2H1380l5.1,357.7
	C1392.1,1080.7,1399.1,1073.7,1406.1,1066.7 M1328.4,627.8h-107.8l13.8-103.4h80.2L1328.4,627.8z M1369.2,708.7h-189.5l44.7-59.6
	h100L1369.2,708.7z"/>
</svg>
