<svg xmlns="http://www.w3.org/2000/svg" width="65" height="65" viewBox="0 0 65 65">
  <g id="Gruppe_464" data-name="Gruppe 464" transform="translate(-413 -2934)">
    <circle id="Ellipse_1" data-name="Ellipse 1" cx="32.5" cy="32.5" r="32.5" transform="translate(413 2934)" fill="#ffa22b"/>
    <path id="Icon_ionic-ios-checkmark" data-name="Icon ionic-ios-checkmark" d="M49.438,15.721l-3.2-3.3a.689.689,0,0,0-.51-.219h0a.661.661,0,0,0-.51.219L23,34.8l-8.085-8.085a.7.7,0,0,0-1.02,0L10.653,29.96a.726.726,0,0,0,0,1.038l10.2,10.2a3.225,3.225,0,0,0,2.13,1.038,3.379,3.379,0,0,0,2.112-1h.018L49.456,16.759A.778.778,0,0,0,49.438,15.721Z" transform="translate(415.808 2938.814)" fill="#fff"/>
  </g>
</svg>
