<svg xmlns="http://www.w3.org/2000/svg" width="255" height="125.539" viewBox="0 0 255 125.539">
  <g id="Gruppe_179" data-name="Gruppe 179" transform="translate(-170.368 -381.642)">
    <path id="Pfad_6239" data-name="Pfad 6239" d="M191.459,381.642a21.007,21.007,0,0,0-21.091,20.923v83.692a21.007,21.007,0,0,0,21.091,20.924h93.594V402.565a21.008,21.008,0,0,0-21.091-20.923Z" transform="translate(0 0)" fill="#97c139"/>
    <path id="Pfad_6240" data-name="Pfad 6240" d="M363.057,381.642a21.007,21.007,0,0,1,21.091,20.923v83.692a21.007,21.007,0,0,1-21.091,20.924H249.03V402.565a21.008,21.008,0,0,1,21.091-20.923Z" transform="translate(41.22 0)" fill="#ed8000"/>
    <path id="Pfad_6241" data-name="Pfad 6241" d="M252.77,423.542a33.269,33.269,0,0,1-9.381,23.2,30.66,30.66,0,0,0-8.211,16.644,5.527,5.527,0,0,1-5.472,4.663H208.959a5.474,5.474,0,0,1-5.446-4.635,31.013,31.013,0,0,0-8.265-16.7,33.429,33.429,0,1,1,57.523-23.176" transform="translate(8.555 4.663)" fill="#fff"/>
    <path id="Pfad_6242" data-name="Pfad 6242" d="M226.592,446.4a4.028,4.028,0,0,1-4.195,3.837h-19.82a3.852,3.852,0,1,1,0-7.673H222.4a4.028,4.028,0,0,1,4.195,3.837" transform="translate(15.022 32.713)" fill="#fff"/>
    <path id="Pfad_6243" data-name="Pfad 6243" d="M221.18,453.209a4,4,0,0,1-4.162,3.807h-11.9a3.822,3.822,0,1,1,0-7.614h11.9a4,4,0,0,1,4.162,3.807" transform="translate(16.418 36.266)" fill="#fff"/>
    <path id="Pfad_6244" data-name="Pfad 6244" d="M217.306,449.125a27.683,27.683,0,1,0-27.682-27.682,27.682,27.682,0,0,0,27.682,27.682" transform="translate(10.593 6.666)" fill="#ed8000"/>
    <path id="Pfad_6245" data-name="Pfad 6245" d="M230.3,425.558a18.526,18.526,0,0,1-33.6-.054,2.191,2.191,0,1,1,4.047-1.679,14.15,14.15,0,0,0,25.526-.006,2.191,2.191,0,0,1,4.023,1.739M219.59,407.005a4.53,4.53,0,1,1,4.531,4.531,4.532,4.532,0,0,1-4.531-4.531m-20.539,0a4.53,4.53,0,1,1,4.53,4.531,4.531,4.531,0,0,1-4.53-4.531" transform="translate(14.021 11.109)" fill="#fff"/>
    <path id="Pfad_6246" data-name="Pfad 6246" d="M326.5,406.737h-4.84v22.322h4.84V416.568c0-3.117,1.525-5.689,4.9-5.689,3.444,0,4.926,2.528,4.926,5.689v12.491h4.84V416.525c0-5.123-2.2-10.2-8.044-10.2a6.73,6.73,0,0,0-6.627,4.207Zm-16.066,0H305.6v22.322h4.838v-11.99c0-3.269,1.352-5.819,4.928-5.819h2.986v-4.512c-3.923,0-7.062.239-7.913,4.795Zm-10.963,18.572-3.379-2.965a8.142,8.142,0,0,1-6.17,2.769,6.615,6.615,0,0,1-6.627-4.97h17.766a15.308,15.308,0,0,0,.153-2.223,11.5,11.5,0,1,0-23,0c0,11.313,13.908,15.411,21.254,7.389m-16.154-9.4c1.33-6.692,11.183-6.78,12.8,0ZM256.967,397.8v31.26h18.55V424.2H262.047V397.8Z" transform="translate(46.046 8.622)" fill="#fff"/>
    <path id="Pfad_6247" data-name="Pfad 6247" d="M339.123,431.936h-4.838v22.322h4.838V441.79c0-2.812,1.221-5.669,4.426-5.669,3.314,0,4.447,2.725,4.447,5.647v12.49h4.84V441.79c0-2.812,1.22-5.669,4.424-5.669,3.336,0,4.447,2.7,4.447,5.647v12.49h4.84V441.723c0-5.165-2.028-10.223-7.935-10.223a7.878,7.878,0,0,0-7.236,3.968,6.518,6.518,0,0,0-6.191-3.968,6,6,0,0,0-6.061,4.229Zm-24.086,0h-4.861v13.472a9.407,9.407,0,0,0,18.813,0V431.936h-4.84v13.472a4.558,4.558,0,1,1-9.112,0ZM286.59,443.12a6.922,6.922,0,1,1,6.932,7,6.933,6.933,0,0,1-6.932-7m13.559,7.673v3.465h4.84V431.936h-4.84V435.4a8.6,8.6,0,0,0-7.368-3.88c-6.213,0-11.009,5.58-11.009,11.62,0,6.211,4.644,11.553,11.009,11.553a8.646,8.646,0,0,0,7.368-3.9m-24.872,3.465h6.1l-8.044-12.272a9.372,9.372,0,0,0,5.951-8.871A10.364,10.364,0,0,0,268.715,423H256.967v31.259h5.1V443.142h6.018Zm-13.3-26.31h6.735a5.227,5.227,0,1,1,0,10.442H261.98Z" transform="translate(45.587 22.068)" fill="#fff"/>
  </g>
</svg>
